<?xml version="1.0" encoding="utf-8"?>
<!-- Generator: Adobe Illustrator 19.0.0, SVG Export Plug-In . SVG Version: 6.00 Build 0)  -->
<svg version="1.1" id="Layer_1" xmlns="http://www.w3.org/2000/svg" xmlns:xlink="http://www.w3.org/1999/xlink" x="0px" y="0px"
	 viewBox="0 0 960 560" style="enable-background:new 0 0 960 560;" xml:space="preserve">
<g>
	<g>
		<path d="M484.6,2.6c1,0.8,2.2,0.8,3.3,1.1c1.5,0.5,3.1,0.8,4.5,1.4c1.9,0.8,3.7,1.7,5.5,2.6c1.7,0.9,3.3,2,5,2.9
			c1.4,0.7,2.4,1.9,3.6,2.9c1.4,1.2,2.5,2.8,4.2,3.7c1,0.5,1.4,1.7,2.2,2.4c3.5,3.2,6.2,7,8.6,11.1c0.5,0.8,1.2,1.4,1.8,2.1
			c0.9,1.1,1,2.5,2,3.5c0.6,0.7,1.3,1.5,1.9,2.3c0.1,0.6-0.1,1.4,0.3,1.9c1.4,1.8,1.7,4.1,2.7,6c1.3,2.5,1.2,5.5,2.7,8
			c0.2,0.3,0.2,0.7,0.1,1.1c-0.1,1,0.2,2,0.6,2.9c0.5,1.2,0.8,2.5,0.5,3.7c-0.3,1.4,0.6,2.5,0.6,3.7c0.1,1.2-0.4,2.3,0.5,3.5
			c0.4,0.5,0.1,1.7,0.1,2.5c0,51.4,0,102.7,0,154.1c0,1.2,0.1,2.3,0.5,3.5c0.3,0.8,0.6,1.5,1.2,1.8c1.5,0.8,3,1.8,4.8,2.1
			c2.3,0.4,4.5,1,6.7,1.7c2.9,0.9,5.8,1.5,8.7,2.3c3.9,1.1,7.9,1.8,11.8,3.1c1.7,0.6,3.4,1,5.1,1.3c1,0.2,1.8,0.7,2.9,0.7
			c1,0,2.3,0.1,3.1,0.7c0.9,0.7,2.2-0.2,2.8,0.9c4.2,0.3,8,2.2,12.2,2.9c1.1,0.2,2.4,0.6,3.6,1c2.3,0.8,4.8,1.2,7.2,1.8
			c3,0.8,6,1.4,9,2.4c1.9,0.6,3.9,1.1,5.9,1.6c3.3,0.9,6.7,1.6,10.1,2.4c3.4,0.9,6.8,1.8,10.2,2.8c4.7,1.3,9.4,2.2,14.1,3.7
			c2.5,0.8,5.2,1.3,7.8,1.9c2,0.5,4.1,1,6.1,1.6c3,0.8,6,1.6,9,2.3c2.6,0.7,5.1,1.2,7.7,2c1.7,0.5,3.4,0.8,5.1,1.3
			c0.9,0.2,1.8,0.7,2.9,0.7c1,0,2.3,0.1,3.1,0.7c0.9,0.7,2.2-0.3,2.8,0.9c2.8,0,5.3,1.4,8.1,1.8c1.8,0.3,3.5,1.1,5.3,1.6
			c1.7,0.5,3.5,0.7,5.2,1.2c3.4,0.9,6.8,1.8,10.3,2.6c3.4,0.8,6.8,1.6,10,2.6c4.7,1.4,9.5,1.9,14.1,3.8c1.3,0.6,3,0.5,4.4,1.1
			c1.3,0.6,2.7,0.8,4.1,1.1c1.4,0.3,2.8,0.6,4.2,0.9c1.3,0.3,2.6,0.6,3.9,0.9c2.6,0.7,5.1,1.4,7.7,2.1c3.3,0.8,6.5,1.7,9.8,2.5
			c3.4,0.9,6.8,1.9,10.2,2.7c4.1,0.9,8.1,2,12.1,3.1c4.7,1.2,9.5,2.2,14.1,3.7c2.4,0.8,5,1.2,7.5,1.9c3.3,0.8,6.7,1.5,10,2.6
			c1.7,0.6,3.4,1,5.1,1.3c1,0.2,1.8,0.7,2.9,0.7c1,0,2.3,0.1,3.1,0.7c0.9,0.7,2.2-0.3,2.8,0.9c2.6-0.1,4.8,1.4,7.2,1.8
			c2.4,0.4,4.9,1,7.2,1.7c3,0.9,6,1.7,9,2.4c2.7,0.6,5.3,1.4,7.9,2.1c2.5,0.6,5,1.3,7.5,1.9c2.7,0.7,5.3,1.4,8,2.1
			c4.1,1.1,8.2,1.9,12.3,3.2c2.4,0.8,5,1.2,7.5,1.9c1.8,0.5,3.6,0.9,5.4,1.5c1.4,0.4,3.1,0,4.3,1.4c1.8,0.1,2.9,1.4,4.2,2.4
			c0,4.6,0,9.2,0,14c-0.8,0.1-1.6,0.4-2.3-0.3c-0.3-0.3-0.5-0.2-0.8-0.2c-3.1,0.4-6.1-1-9.1-0.6c-1.4,0.2-2.6-0.8-4-0.7
			c-1.3,0.1-2.8,0.5-4-0.5c-0.1-0.1-0.4,0-0.6,0c-3,0.4-5.9-0.9-8.9-0.6c-1.2,0.1-2.2-0.8-3.5-0.6c-1.1,0.1-2.5,0.6-3.5-0.5
			c0,0-0.2,0-0.3,0c-2.4,0.4-4.8-0.9-7.2-0.5c-1.5,0.2-2.8-0.6-4.3-0.6c-1.4,0-3,0.5-4.3-0.5c-0.1,0-0.2,0-0.3,0
			c-2.8,0.4-5.5-0.7-8.3-0.6c-2.7,0.1-5.3-0.9-8-0.6c-1.4-1-3.1-0.6-4.6-0.5c-1.4,0-2.6-0.8-4-0.7c-1.2,0.1-2.6,0.5-3.7-0.5
			c-0.1-0.1-0.4,0-0.6,0c-2.9,0.4-5.7-0.8-8.6-0.6c-1.2,0.1-2.2-0.8-3.5-0.6c-1.2,0.2-2.4,0.3-3.5-0.5c-0.1-0.1-0.4,0-0.6,0
			c-2.9,0.4-5.7-0.5-8.6-0.7c-2-0.1-4.1-0.1-6-0.5c-1.8-0.4-3.5-0.4-5.2-0.5c-1.3-0.1-2.4-0.7-3.8-0.6c-1.2,0.1-2.6,0.4-3.8-0.5
			c-0.1-0.1-0.4,0-0.6,0c-3.2,0.4-6.3-0.9-9.4-0.6c-1.2,0.1-2.2-0.8-3.5-0.6c-1.1,0.1-2.4,0.5-3.5-0.5c-0.1-0.1-0.6-0.1-0.8,0
			c-2.9,0.4-5.7-0.4-8.6-0.7c-1.9-0.2-3.9-0.1-5.7-0.5c-1.9-0.5-3.9-0.1-5.7-0.6c-1.8-0.5-3.8,0-5.4-0.6c-1.8-0.6-3.5-0.1-5.2-0.5
			c-2-0.6-4.1-0.1-6-0.6c-1.8-0.4-3.5-0.3-5.2-0.5c-1.3-0.1-2.4-0.7-3.8-0.6c-1.2,0.1-2.6,0.4-3.8-0.5c-0.1-0.1-0.4,0-0.6,0
			c-3.2,0.4-6.3-0.9-9.4-0.6c-1.2,0.1-2.2-0.8-3.5-0.6c-1.1,0.2-2.4,0.3-3.4,0c-2-0.8-4.1-0.2-6-0.6c-1.8-0.3-3.6-0.2-5.3-1
			c-0.2-0.1-0.4-0.1-0.5-0.1c-2.7,0.4-5.3-0.9-8-0.5c-1.4,0.2-2.6-0.8-4-0.7c-1.3,0.1-2.8,0.6-4-0.5c-0.1,0-0.2,0-0.3,0
			c-2.6,0.4-5.1-0.7-7.7-0.6c-2.7,0.1-5.3-1-8-0.6c-1.7-1-3.6-0.6-5.4-0.5c-1.4,0.1-2.4-0.8-3.8-0.7c-1.3,0.1-2.8,0.4-3.9-0.1
			c-1.6-0.6-3.1-0.5-4.6-0.4c-1.3,0.1-2.4-0.8-3.8-0.7c-1.1,0.1-2.3,0.1-3.5-0.4c-1.3-0.5-2.9,0.1-4.3-0.7c-2.7,0.4-5.3-0.9-8-0.5
			c-1.5,0.2-2.6-0.7-4-0.7c-1.3,0.1-2.8,0.7-4-0.5c-0.1-0.1-0.4,0-0.6,0c-3.2,0.4-6.3-1-9.4-0.5c-1.3,0.2-2.2-0.8-3.5-0.6
			c-1.2,0.2-2.6,0.4-3.7,0c-1.8-0.7-3.7-0.4-5.5-0.5c-1.4,0-2.6-0.8-4-0.6c-1.2,0.2-2.6,0.4-3.7-0.5c-0.1-0.1-0.4,0-0.6,0
			c-2.9,0.4-5.7-0.9-8.6-0.6c-1,0.1-1.8-0.8-2.9-0.6c-0.9,0.2-1.9,0.3-2.6-0.5c-0.1-0.1-0.4,0-0.6,0c-3.1,0.4-6.1-0.8-9.2-0.6
			c-1.3,0.1-2.6-0.6-4-0.5c-1.4,0-2.8,0.4-4-0.5c-0.1,0-0.2,0-0.3,0c-3.1,0.4-6.1-1-9.1-0.5c-1.4,0.2-2.6-0.8-4-0.7
			c-1.3,0.1-2.8,0.6-4-0.5c-0.1-0.1-0.4,0-0.6,0c-3.1,0.4-6.1-0.9-9.1-0.6c-1.2,0.1-2.2-0.8-3.5-0.6c-1.2,0.2-2.3,0.1-3.5-0.5
			c-0.7-0.4-1.7-0.1-2.5-0.1c-0.3,0.3-0.5,0.5-0.9,0.9c0,16.6,0,33.3,0,50c0,0.9,0,1.7,0,2.6c0,0.6,0.5,0.7,0.8,1.2c3,0,6,0,9.3,0
			c0.2-0.4,0.6-0.9,1-1.5c0.1,0.1,0.2,0.1,0.3,0.2c0-0.8,0-1.7,0-2.1c1-2.1,1.8-3.9,2.8-5.6c0.7-1.3,1.7-1.8,3-1.8
			c7.1-0.1,14.3-0.5,21.3,0.1c5.9,0.5,11.8,0.1,17.7,0.4c0.7,0,1.5-0.3,2.1,0.5c0.1,0.1,0.3,0.1,0.5,0.1c1.1-0.1,2-0.9,3.3-0.1
			c0.9,0.5,2.4,0.1,3.6,0.1s2.5,0.1,3.7,0c2-0.2,3.5,0.5,4.5,2c1.4,2,3.2,3.8,4.1,6.3c0.9,2.3,1.1,2.2,1.2,4.1c0.3,0.3,0.7,0.7,1,1
			c0,4.8,0,9.6,0,14.5c0,0.7,0.2,1.5-0.6,2c0.4,1-0.8,1.6-0.6,2.6c0.1,0.8,0,1.7,0,2.4c-0.9,1.4-1.4,2.8-1.7,4.3
			c-0.3,1.4-0.9,2.7-1.3,4c-0.4,1.4-1.8,2.5-1.5,4.4c-0.4,0.3-0.8,0.6-1.2,0.9c0,0.8,0,1.4,0,1.9c-0.6,0.7-1.7,1.4-1.6,1.9
			c0.3,1.5-1.9,1.8-1.2,3.2c-1.2,1.4-2.6,2.7-3,4.8c-2,1.6-2.9,4.2-4.4,6.5c-0.4,0.6-1.1,0.9-1.2,1.8c-0.1,0.6-1.4,0.5-1.2,1.4
			c-2.1,2.5-4.2,4.9-6.2,7.4c-0.7,0.8-1.4,1.7-2,2.6c-0.6,0.8-1.6,1.2-2,2.3c-0.2,0.5-1.2,0.6-1.2,1.4c-1.1,0.1-1.5,0.9-1.8,1.8
			c-1.2-0.3-0.8,1.3-1.9,1.5c-0.7,0.1-1.4,1.2-2,1.8c-1.3,0.8-2.3-0.5-3.5-0.4c-1.6,0.1-3.2-0.1-4.8,0.1c-1.9,0.2-3.6-0.8-5.5-0.6
			c-1.9,0.2-3.9,0.4-5.7-0.1c-2.6-0.7-5.2-0.3-7.8-0.5c-1.8-0.1-3.6-1-5.3-0.5c-1-0.6-0.9-1.8-2-2.4c-1,0.5-2.1,1.3-3.3,1.8
			c-5.4,2.2-10.5,4.9-15.7,7.4c-1.3,0.7-2.8,1.1-4.1,2c-1.2,0.8-2.7,1.3-4,1.9c-1.1,0.5-1.7,1.4-2.5,2.1c-0.2,0.2-0.1,0.7-0.1,1.4
			c-0.5,0.4-1.1,0.9-1.7,1.4c0,0.6,0,0.9,0,1.3c-0.2,0.4-0.5,0.3-0.8,0.3c-2.1,4.7-5.3,8.9-7.1,13.9c-0.6,0.5-1.3,1.1-1.9,1.6
			c-0.5,2-1.1,3.9-2.7,5.3c0.7,1.9-1.4,2.7-1.7,4.6c2.2,0.8,4.4,1.9,6.8,2.4c3.7,0.9,7.1,2.7,10.7,3.6c3,0.8,5.7,2.4,8.8,2.7
			c2,1.3,4.4,1.7,6.6,2.5c5.4,1.9,10.8,3.6,16.2,5.5c3.5,1.2,6.9,2.6,10.5,3.6c2.4,0.7,4.5,2.2,7.1,2.1c3.6,2,7.8,2.8,11.6,4.2
			c5.4,1.9,10.8,3.7,16.2,5.5c4.7,1.6,9.3,3.2,14,4.7c2.9,1,5.7,2.4,8.9,2.7c2,1.3,4.2,1.7,6.4,2.4c6,2,11.9,4.1,17.9,6.1
			c4.2,1.4,8.4,2.6,12.4,4.3c0.6,0.3,1.6-0.2,2,0.8c3.4,1.2,3.4,1.2,5.4,3.1c0,5.5,0,11.1,0,16.9c-1.7-0.3-3.5,0.4-5.1-0.6
			c-2.1,0.4-4-0.9-6-0.6c-1.1,0.2-1.8-0.8-2.9-0.6c-0.8,0.1-1.9,0.4-2.7-0.4c-0.2-0.2-0.7,0-1.1-0.1c-1-0.2-2,0.3-3-0.5
			c-0.7-0.5-2.1,0.4-2.8-0.7c-1.7,0.4-3.2-0.6-4.9-0.7c-1.7-0.1-3.6-0.2-5.3-0.9c-0.2-0.1-0.5-0.1-0.8-0.1c-2.1,0.3-4-0.7-6-0.7
			c-1.4,0-3-0.2-4.3-0.6c-1.4-0.4-2.8-0.2-4-0.5c-2.3-0.6-4.6-0.8-6.9-1.1c-0.9-0.1-1.6-1-2.6-0.6c-1.1,0.4-1.9-0.5-2.9-0.6
			c-0.9,0-1.9,0.4-2.6-0.5c-1.7,0.3-3.2-0.6-4.9-0.6c-1.7,0-3.4-1-5.2-0.6c-0.8-0.8-1.9-0.7-2.9-0.5c-1,0.2-1.7-0.6-2.6-0.6
			c-1.2,0-2.4,0.3-3.5-0.5c-1.9,0.4-3.6-1-5.4-0.5c-1,0.2-1.6-0.7-2.6-0.6c-0.9,0.1-1.9,0.3-2.6-0.5c-1.7,0.4-3.2-0.5-4.9-0.6
			c-2-0.1-3.9-0.4-5.8-1c-1.2-0.4-2.6,0.3-3.7-0.7c-2,0.4-3.8-0.5-5.7-0.6c-1.8-0.1-3.6-0.3-5.3-0.9c-0.2-0.1-0.5-0.1-0.8-0.1
			c-3.3,0.1-6.4-1.4-9.8-1.1c-1.1-0.8-2.4-0.3-3.4-0.7c-1.1-0.4-2.2-0.2-3.2-0.5c-2.8-1-5.9-0.5-8.7-1.7c-1.9,0.4-3.6-0.9-5.4-0.5
			c-1.1,0.2-1.8-0.8-2.9-0.7c-0.9,0.1-1.9,0-2.9-0.4c-1.2-0.4-2.7-0.5-4-0.6c-1.8-0.1-3.6-1.1-5.4-0.7c-0.8,0.2-1.4-0.8-2.3-0.6
			c-0.7,0.1-1.5,0.1-2.4-0.4c-0.8-0.4-2.2-0.6-3.2,0.8c0.4,4.3-0.4,8.7-0.7,13.1c0,0.2-0.4,0.4-0.6,0.7c-2.8,0-5.6,0-8.7,0
			c-0.3-0.4-0.7-0.9-1.3-1.8c0.1,0.3,0,0.2,0,0c0.2-4.3-1.1-8.5-0.4-13c-1.3,0.2-2.3,0.1-3.4,0.5c-1.3,0.5-2.9,0.4-4.3,0.6
			c-3.1,0.3-6.1,1-9.2,1.4c-3,0.4-6,0.7-9,1.5c-1.3,0.4-2.7,0.4-4,0.5c-2.9,0.3-5.7,1.1-8.6,1.3c-1.3,0.1-2.8,0.2-4,0.5
			c-1.4,0.4-2.8,0.2-4,0.5c-2.7,0.8-5.5,0.6-8.1,1.6c-0.8,0.3-1.7,0.1-2.5,0c-0.9-0.1-1.4,0.8-2.3,0.6c-1-0.2-2.1,0-3.2,0.5
			c-0.9,0.4-2.1,0.1-3.2,0.5c-1.4,0.5-3,0.4-4.6,0.6c-2.9,0.3-5.7,1.2-8.6,1.4c-2.4,0.2-4.9,0.5-7.2,1.1c-1.4,0.3-2.8,0.2-4,0.6
			c-1.4,0.4-2.7,0.3-4,0.5c-2.6,0.5-5.2,0.7-7.8,1.2c-2.5,0.5-5.1,0.6-7.6,1.5c-1.4,0.5-3,0.2-4.6,0.6c-3.2,0.8-6.6,0.7-9.8,1.7
			c-0.3,0.1-0.8,0-1.1,0c-1.3,0-2.5,0-3.8,0.5c-1.1,0.4-2.3,0-3.5,0.5c-1.4,0.5-3.1,0.5-4.6,0.6c-3.1,0.2-6.1,1.4-9.2,1.2
			c-1.4,1.2-3.3,0-4.6,1.1c-1.7-0.3-3.2,0.5-4.9,0.7c-1.3,0.1-2.8,0.1-4,0.5c-1.4,0.4-2.8,0.1-4,0.6c-1.7,0.6-3.5-0.1-4.9,0.6
			c-1.6,0.7-3.1,0.1-4.8,0.6c0-5.5,0-10.8,0-16.4c0.9-0.8,1.9-1.8,3.2-3c1.3,0.4,2.4-0.9,3.9-1.4c5.5-1.7,11-3.5,16.5-5.6
			c2.9-1.1,5.8-2,8.7-3c6.7-2.2,13.3-4.6,20-6.7c5.9-1.8,11.7-3.8,17.5-5.8c2.5-0.8,4.9-1.9,7.4-2.7c3-0.9,6-1.9,9-3
			c2.3-0.8,4.7-1.5,7-2.4c2.2-0.9,4.5-1.5,6.7-2.2c5.4-1.8,10.8-3.8,16.2-5.4c1.2-0.4,2.1-1.4,3.5-1.2c1.3,0.1,2.3-0.9,3.5-1.2
			c4.3-1.3,8.4-3.1,12.7-4.4c4.3-1.3,8.5-2.9,12.8-4.1c2-0.6,4-1.3,5.9-2.1c1.8-0.8,3.9-1.2,5.8-1.8c0.6-0.2,1.1-0.5,1.7-0.8
			c-0.4-0.4-0.8-0.8-1.1-1.2c0-0.6,0-1.1,0-1.7c-1.4-0.9-1.1-3-2.6-3.8c-0.3-1.5-1-2.9-1.9-4c-1-1.2-1.5-2.7-2.2-4
			c-0.7-1.3-1.5-2.6-2.2-3.9c-0.7-1.3-1.3-2.7-2.1-4c-0.8-1.3-1.6-2.6-2.6-3.8c0.5-1.9-2.5-2.1-1.7-4c-1.5-1.5-3.5-1.7-4.9-2.8
			c-1.5-1.2-3.5-1.3-5-2.5c-1.4-1.1-3.4-1.4-4.9-2.4c-1.5-0.9-3.3-1.2-4.8-2.2c-1.6-1-3.4-1.4-5-2.4c-1.6-1-3.4-1.5-5.2-2.3
			c-0.2,1-0.9,1.7-1.8,2.4c-1.8-0.5-3.5,0.5-5.4,0.5c-1.9,0-3.9-0.4-5.7,0.1c-2.9,0.7-5.8,0.1-8.6,0.6c-3.1,0.5-6.1,0.4-9.2,0.5
			c-1,0-1.8,0.9-2.8,0.5c-3-1.8-5.1-4.4-7.5-6.8c-1.9-1.9-3.5-4-5.1-6.1c-0.7-1.1-1.8-1.9-2.6-2.9c-0.7-0.9-1.3-1.9-2.3-2.8
			c-0.8-0.7-1.3-2-1.9-2.8c-1.8-2.3-3.2-5-5-7.3c-0.7-0.9-0.4-2.1-1.5-2.8c-0.8-0.6-1.6-1.7-1.7-2.6c-0.1-1.2-1.6-1.6-1.3-3
			c0.1-0.5-1-1.2-1.6-1.9c0-0.5,0-1.1,0-1.4c-1.9-2.9-2.8-6-3.6-9c-0.8-3.1-2.3-6.1-2.1-9.4c-1.6-3-0.9-6.3-1.2-9.5
			c-0.3-3.4,0.6-6.5,0.9-10c0.4-0.3,1.1-0.5,1.1-0.8c0.3-1.9,1.6-3.1,2.4-4.7c0.2-0.5,0.2-0.9,1-1c0.7-0.1-0.2-1.5,0.6-1.6
			c0.9,0,0.7-0.7,0.9-1.1c0.4-0.7,1.4-0.4,1.7-1.2c2.6,0,5.2,0,7.7,0c0.9,0,1.9,0.4,2.7-0.5c0.1-0.2,0.9-0.3,1.3,0.2
			c0.4,0.5,0.9,0.5,1.3,0.3c1.6-1,3.3-0.5,4.9-0.5c4.4-0.1,8.8,0.4,13.1-0.1c3.8-0.5,7.6-0.3,11.4-0.4c3.9-0.1,7.8,0,11.7,0
			c1.1,0,2.1,0.3,3.1,0.7c1,1.7,1.4,3.7,2.9,5.2c0,0.7,0,1.5,0,1.9c0.6,1.5,1.2,2.4,2.2,3c2.8,0,5.6,0,8.4,0c0.2-0.7,1-0.3,1.4-0.8
			c0-17.6,0-35.3,0-52.9c-0.3-0.2-0.5-0.5-0.8-0.8c-1.5-0.1-3-0.1-4.6,0.5c-1.4,0.5-3.2-0.6-4.6,0.6c-0.1,0.1-0.4,0-0.6,0
			c-3-0.4-5.9,0.9-8.9,0.6c-1.3-0.2-2.4,0.8-3.8,0.6c-1.1-0.1-2.4-0.4-3.5,0.5c-0.1,0.1-0.4,0-0.6,0c-3.2-0.4-6.3,0.9-9.4,0.6
			c-1.2-0.1-2.2,0.8-3.5,0.6c-1.2-0.2-2.6-0.4-3.7,0c-1.7,0.7-3.3,0.6-4.9,0.4c-1.4-0.1-2.4,0.8-3.8,0.7c-1.2-0.1-2.6-0.5-3.7,0.5
			c-0.1,0-0.2,0-0.3,0c-2.4-0.4-4.7,0.9-7.2,0.6c-1.3-0.2-2.4,0.8-3.8,0.7c-1.1-0.1-2.4-0.6-3.5,0.5c-0.1,0.1-0.4,0-0.5,0
			c-3.1-0.4-6.1,1-9.1,0.5c-1.4-0.2-2.4,0.8-3.8,0.6c-1.2-0.1-2.6-0.4-3.7,0c-1.8,0.7-3.7,0.5-5.5,0.4c-1.2,0-2.2,0.9-3.5,0.7
			c-1.2-0.2-2.6-0.4-3.7,0c-1.6,0.6-3.1,0.3-4.6,0.5c-1.3,0.2-2.4,0.7-3.8,0.6c-1.3-0.1-2.6-0.3-3.8,0.5c-0.3,0.2-0.7,0-1.1,0
			c-1.4,0.2-2.8-0.4-4.1,0.4c-1.1,0.7-2.6-0.4-3.7,0.7c0,0-0.2,0-0.3,0c-2.6-0.4-5.1,0.9-7.7,0.5c-1.5-0.2-2.8,0.8-4.3,0.6
			c-1.4-0.1-3-0.4-4.2,0.1c-1.7,0.6-3.3,0.5-4.9,0.4c-1.4-0.1-2.4,0.8-3.8,0.7c-1.2-0.1-2.6-0.3-3.7,0c-1.8,0.6-3.7,0.1-5.5,0.6
			c-1.9,0.5-3.9,0.2-5.7,0.6c-1.9,0.4-3.9,0.1-5.7,0.6c-1.9,0.5-3.9,0.2-5.7,0.6c-1.4,0.3-2.7,0.6-4,0.4c-1.4-0.2-2.6,1-4,0.6
			c-1.8,0.9-3.8,0.6-5.7,0.5c-1.5,0-2.8,0.8-4.3,0.7c-1.4-0.1-3-0.5-4.3,0.5c-0.1,0.1-0.4,0-0.6,0c-3.2-0.4-6.3,0.8-9.4,0.6
			c-1.4-0.1-2.6,0.8-4,0.6c-1.2-0.2-2.6-0.3-3.7,0.5c-0.1,0-0.2,0-0.3,0c-3-0.4-5.9,0.9-8.9,0.6c-1.4-0.1-2.6,0.8-4,0.6
			c-1.2-0.2-2.6-0.4-3.7,0.5c-0.1,0.1-0.4,0-0.6,0c-2.9-0.4-5.7,0.8-8.6,0.6c-1.2-0.1-2.4,0.7-3.7,0.5c-1.3-0.1-2.6-0.3-3.7,0.5
			c-0.1,0-0.2,0-0.3,0c-2.9-0.4-5.7,0.9-8.6,0.6c-1.3-0.1-2.4,0.7-3.7,0.6c-1.2-0.1-2.6-0.4-3.7,0.5c-0.1,0.1-0.4,0-0.6,0
			c-3.1-0.4-6.1,0.8-9.2,0.6c-1.2-0.1-2.4,0.6-3.7,0.5c-1.3-0.1-2.6-0.3-3.7,0.5c-0.1,0-0.2,0-0.3,0c-3.2-0.4-6.3,0.9-9.4,0.6
			c-1.3-0.2-2.4,0.8-3.8,0.6c-1.1-0.1-2.4-0.3-3.5,0.5c-0.1,0-0.2,0-0.3,0c-2.7-0.4-5.3,0.9-8,0.5c-1.4-0.2-2.4,0.7-3.8,0.7
			c-1.2-0.1-2.6-0.5-3.8,0.5c-0.1,0.1-0.4,0-0.6,0c-3-0.4-5.9,0.9-8.9,0.6c-1.4-0.1-2.6,0.8-4,0.6c-1.2-0.2-2.6-0.4-3.7,0.5
			c-0.1,0.1-0.4,0-0.6,0c-3-0.4-5.9,0.9-8.9,0.6c-1.2-0.2-2.2,0.8-3.5,0.6c-1.1-0.2-2.4-0.3-3.4,0c-1.8,0.7-3.7,0.2-5.5,0.6
			c-1.9,0.5-3.9,0.2-5.7,0.6c-1.6,0.4-3.4,0.1-4.9,0.6c-1.7,0.5-3.4,0.1-4.9,0.5c-1.9,0.6-4,0-5.7,0.6c-1.9,0.7-3.7,0-5.5,0.5
			c-1.9,0.6-3.9,0.2-5.7,0.6c-2,0.4-4.1,0.2-6,0.6c-1.3,0.3-2.5,0.5-3.8,0.4c-1.3-0.1-2.5,0.3-3.8,0.6c-0.5,0.1-0.9,0-1.4,0
			c-1-1-0.9-2.3-0.9-3.6c0-3,0-6.1,0-9.2c1.5-1.5,2.9-3.3,5.1-4c1.6-0.5,3.2-1.1,4.8-1.5c4.2-1,8.4-1.9,12.6-3.3
			c1.2-0.4,2.6-0.7,3.8-1c1.2-0.4,2.5-0.4,3.7-0.8c2.8-0.9,5.7-1.3,8.5-2.2c1.3-0.4,2.7-0.9,4.1-1.1c1.5-0.3,2.9-0.9,4.3-1.2
			c1.4-0.3,2.8-0.9,4.1-1c2.6-0.2,5-1.4,7.5-1.8c2.6-0.4,5-1.2,7.5-1.8c3-0.6,5.9-1.7,9-2.4c2.6-0.6,5.1-1.6,7.7-2
			c1-0.2,1.8-0.7,2.9-0.7c1,0,2.3-0.1,3.1-0.7c0.9-0.7,2.2,0.3,2.8-0.9c1.5,0.1,2.7-0.8,4.1-1.1c1.5-0.3,2.9-0.6,4.4-1.1
			c1.3-0.5,2.7-0.9,4.1-1.1c3.5-0.6,6.9-1.7,10.4-2.5c3.2-0.7,6.3-1.7,9.4-2.6c2.5-0.7,5-1.2,7.5-1.9c3.3-0.8,6.7-1.5,10-2.6
			c1.7-0.6,3.4-1,5.1-1.3c1-0.2,1.8-0.7,2.9-0.7c1,0,2.3-0.1,3.1-0.7c0.9-0.7,2.2,0.2,2.8-0.9c2.6,0.1,4.8-1.4,7.2-1.8
			c2.4-0.4,4.9-1,7.2-1.7c4.6-1.4,9.4-2.3,14.1-3.8c3.3-1.1,7-1.6,10.4-2.5c3.1-0.9,6.5-1.2,9.4-2.7c2.9,0,5.4-1.7,8.4-1.8
			c1.2-0.1,2.5-0.7,3.8-1.1c2.1-0.7,4.3-0.9,6.5-1.5c2.3-0.6,4.6-1.3,6.9-1.9c1.9-0.6,4-0.9,5.9-1.6c2.7-1,5.7-1.2,8.5-2.2
			c2.4-0.8,5-1.2,7.5-1.8c2.5-0.6,5-1.2,7.5-1.9c2.7-0.7,5.3-1.4,7.9-2.1c3.3-0.9,6.7-1.6,10-2.7c2.4-0.8,5-1.3,7.5-1.9
			c2.6-0.5,5.1-1.4,7.7-2c2.6-0.6,5.1-1.3,7.7-2c2.5-0.6,5-1.2,7.5-1.8c2.6-0.7,5.3-1.5,7.9-2.1c2.6-0.7,5.2-1.2,7.7-2
			c1.7-0.6,3.4-1,5.1-1.3c1-0.2,1.8-0.7,2.9-0.7c1,0,2.3-0.1,3.1-0.7c0.9-0.7,2.2,0.3,2.8-0.9c5-0.7,9.7-2.3,14.5-3.5
			c4.7-1.2,9.5-1.9,14-3.9c3.6-0.3,7-1.5,10.4-2.4c3.9-1,8-1.4,11.7-3.3c1.7,0.2,3.1-0.8,4.6-1.2c1.5-0.3,2.9-0.9,4.4-1.1
			c1.5-0.2,2.2-1.5,3.4-1.8c1.8-1.9,1.5-4.3,1.5-6.5c0-50.9,0-101.8,0-152.7c0-0.9-0.3-1.9,0.1-2.5c0.6-0.9-0.4-1.4-0.1-2.2
			c1.1-2.6,0.3-5.5,1.6-8.1c0.5-0.9,0.1-2.2,0.1-3.1c0.5-0.9,1.1-1.6,1.1-2.4c0-2.6,1.3-4.8,2-7.2c0.4-1.3,1.1-2.6,1.4-3.9
			c0.2-0.8,0.8-1,1.1-1.6c0-0.6,0.1-1.2,0.1-1.9c0.3-0.1,0.6-0.1,0.9-0.2c0.5-1,0.1-2.6,1.8-2.9c0.3-1.7,1.6-2.8,2.3-4.2
			c1.6-2.9,3.7-5.3,5.7-7.9c2.1-2.9,4.8-5.3,7.3-7.7c3-2.9,6.3-5.4,10-7.5c2.8-1.6,5.6-2.9,8.5-4.2c1-0.5,2.2-0.6,3.4-0.8
			c1-0.2,2-0.4,2.8-1.2C479.6,2.6,482.1,2.6,484.6,2.6z M428.8,75.1c0,0.9,0,1.9,0,2.8c0,101.5,0,203-0.1,304.6
			c0,5.1,1,10.1,0.6,15.4c0.4,0.2,0.8,0.5,1.4,0.9c-1,4,0.6,7.9,0.9,11.8c1.2,1.6,0,3.9,1.7,5.3c0.2,0.2,0,0.7,0,1.1
			c0,0.9,0,1.9,0,2.8c0.4,0.4,0.7,0.7,1.1,1.1c0.1,0.8-0.2,1.8,0.2,2.4c2,3.3,1.9,7.6,4.4,10.7c-0.2,2.1,1.6,3.5,1.9,5.4
			c0.4,0.1,0.7-0.1,1,0.4c-0.5,1.7,1,2.8,1.6,4.3c0.6,1.6,2.2,2.8,2.4,4.7c1.1,0.6,0.9,2,1.6,2.7c1.3,1.4,1.4,3.5,3,4.8
			c-0.6,1.2,1.2,1.2,1.1,2c-0.2,1.2,1.3,1.4,1.2,2.4c-0.1,1.3,1,1.3,1.6,1.7c0.3,0.7-0.1,1.4,0.3,2c0.3,0.1,0.8,0,0.9,0.4
			c0,0.5-0.1,1.1,0.4,1.5c0.5,0.4,1.2,1,1.2,1.4c0,1.4,1.6,2,1.4,3.4c1.6,1.6,2,3.9,3.2,5.8c1.3,1.9,2.1,4,3,6.1c2,1,3.4-1,5.2-1
			c0.3,0,0.7-0.4,0.8-0.8c0.2-0.4,0.1-0.9,0.2-1.3c1.3-0.3,1.9-1.5,2.8-2.2c-0.5-5.5,0.4-10.9-0.6-16.3c-0.5-2.9,0.1-5.9-0.5-8.9
			c-0.5-2.5-0.3-5.1-0.1-7.7c0.2-2.6-0.7-5.1-0.6-7.7c0.2-8.3-0.5-16.5,0.5-24.8c0.2-1.4,0.5-2.7,0.7-4c0.1-0.4,0.5-0.7,0.5-1.2
			c0.1-1.3,1.4-2.8,2.4-3.6c1.6-1.4,3.5-1.8,5.6-1.7c2.2,0.1,4.1,0.8,5.1,2.9c0.3,0.6,0.8,0.3,1.2,0.8c-0.3,1.3,0.5,2.4,1.1,3.5
			c0,6.3,0,12.5,0,18.8c0,6.2,0.1,12.3,0,18.5c-0.1,6.2,0.5,12.4-0.5,18.5c-0.3,2-0.1,4-0.5,6c-0.5,2.2-0.1,4.7-0.1,6.9
			c1,0.9,2.4,1.1,2.7,2.2c0.4,1.5,1.6,2.1,2.7,2.5c1.1,0.3,2.3,1.3,3.8,0.4c2.2-4.9,5.1-9.6,7.2-14.9c0.7-0.5,1.3-1.1,1.9-1.5
			c0-0.6,0-0.9,0-1.1c0.2-0.7,0.8-0.2,1.1-0.8c-0.6-1.4,1.7-1.8,1.1-3.5c0.6-0.5,1.2-1,1.8-1.5c0-0.5,0-0.9,0-1.2
			c0.2-0.4,0.5-0.2,1-0.3c-0.1-0.9,0.5-1.6,0.9-2.3c1.2-2.2,2.5-4.5,3.6-6.7c0.7-1.3,1.2-2.7,2-4c0.5-0.7,0.6-1.8,1.3-2.3
			c1-0.8,0.6-1.9,0.8-2.7c2-0.6,1.2-2.8,2.6-3.6c-0.1-1.5,1-2.6,1.5-4c0.5-1.4,1.2-2.7,1.6-4.2c0.4-1.4,0.8-2.8,1.3-4
			c0.6-1.4,0.1-3.2,1.6-4c0-1.3,0-2.4,0-3.4c0.4-0.4,0.7-0.7,1.2-1.2c-0.8-1.9,0.9-3.6,0.5-5.6c1.4-1.8,1.2-4,1.1-6.1
			c-0.1-1.4,0.4-2.6,1.2-3.8c0-4.7,0-9.4,0-14.1c0.4-0.4,0.7-0.7,1-0.9c0-103.3,0-206.5,0-309.7c-0.7-0.4-1.3-0.8-1.9-1.1
			c-0.3,0.3-0.6,0.5-1.1,0.5c-1.8,0-3.6-0.1-5.4,0c-2.2,0.1-4.3-0.3-6.3-1.5c0.6-2.6-0.2-5.3-0.5-7.7c0.6-0.7,1.1-1.2,1.1-1.2
			c2.8-1.2,5.2-1,7.6-1c1.9,0,3.7,0,5.8,0c-0.5-3-2-5.5-1.3-8.1c-1.8-1.9-0.9-4.8-2.9-6.4c0-0.8,0-1.5,0-2.3
			c-0.3-0.3-0.7-0.7-1.1-1.1c0-0.6,0.1-1.3-0.2-1.8c-1.8-3.3-3.3-6.6-5.2-9.8c-0.6-1-1.6-1.7-1.9-2.6c-0.4-1-1.2-1.5-1.6-2.5
			c-0.3-0.9-1.5-1.5-1.9-2.6c-0.3-1-1.2-1.6-1.9-2.3c-1.6-1.8-3.2-3.6-4.7-5.5c-0.5-0.6-1.6-0.5-1.6-1.6c-1.2,0.4-0.7-1.2-1.7-1.4
			c-0.7-0.1-1.2-1.3-1.9-1.6c-1.5-0.7-2.3-2.1-3.6-2.9c-2.9-1.6-5.8-3.3-8.9-4.7c-3.3-1.6-6.7-2.3-10.3-2.7
			c-1.5-0.2-3.1,0.3-4.6,0.4c-3.1,0.2-5.9,1.3-8.6,2.6c-5.7,2.8-7.7,4.4-12.5,8.3c-2,1.6-3.7,3.4-5.5,5.1c-2.6,2.4-4.7,5.3-6.7,8.3
			c-0.2,0.2-0.6,0.3-1,0.4c0,0.4-0.1,0.9-0.1,1.3c-0.4,0.1-0.7,0.3-1,0.4c0,0.4,0,0.8,0,1.1c-1.9,2-5.4,7.8-6.2,10.8
			c-0.2,0.8-0.8,1.2-1,1.6c-0.3,0.8,0.1,1.5-0.6,2.5c0,0-0.4,0.3-0.7,0.6c0,0.9,0,1.6,0,2.3c-0.4,0.4-0.7,0.7-1,1
			c0,1.6-1.1,3.1-0.6,4.7c-0.5,0.4-0.9,0.7-1.1,1c0,1.6,0,3.1,0,4.6c0.3,0.3,0.6,0.6,0.8,0.8c5.8,0,11.5,0,17.3,0
			c1.5,0,2.8,0.5,4,1.3c0,1.8-0.1,3.7,0,5.4c0.2,1.8-1.1,3.3-0.5,5.3c-1.5,0.3-2.7,1-4.1,1c-5.1,0-10.2,0-15.4,0
			c-0.8,0-1.6,0-2.3-0.6C429.9,74.6,429.4,74.9,428.8,75.1z M66.5,339.7c0.3-0.6,1.2-0.2,1.4-0.9c0-0.1,0.3-0.1,0.5-0.1
			c1.2,0,2.5-0.1,3.7,0c1.3,0.2,2.4-0.8,3.8-0.6c3.3,0.4,6.4-1,9.7-0.5c0.2,0,0.4,0.1,0.6,0c1.2-1.1,2.7-0.6,4-0.5
			c1.4,0.1,2.6-0.9,4-0.7c2.5,0.4,4.9-0.9,7.4-0.6c0.2,0,0.4,0,0.5-0.1c0.9-0.9,2-0.4,2.9-0.4c1,0,1.8-0.7,2.9-0.7
			c1.5,0.1,3.2,0.5,4.6-0.5c2.7,0.4,5.3-0.6,8-0.6c3,0.1,5.9-1,8.9-0.6c0.1,0,0.2,0,0.3,0c1.2-0.9,2.7-0.6,4-0.5
			c1.5,0.2,2.9-0.7,4.3-0.6c3.2,0.2,6.2-1,9.4-0.6c0.2,0,0.5,0.1,0.6,0c1.1-1,2.5-0.6,3.8-0.5c1.3,0.1,2.4-0.9,3.8-0.7
			c2.7,0.4,5.3-1,8-0.5c0.2,0,0.4,0,0.5-0.1c1.4-1.1,2.7-0.3,4.1,0.2c0.1,1.8,1.7,3,1.9,4.8c3.4,0.8,6.6-0.8,9.8-0.4
			c0.3-0.3,0.5-0.5,0.8-0.8c0-1.7,0-3.4,0-5.1c0.4-0.4,0.6-0.7,0.9-0.9c1.6-0.2,3.3,0.4,4.8-0.3c1.5-0.7,3-0.3,4.4-0.3
			c1.6,0,3-1.1,4.5-0.6c0.3-0.5,0.9-0.6,0.8-1.3c-1.3-1.1-1.2-3.2-2.8-4.2c-0.1-0.1-0.2-0.9,0.2-1.4c0.9,0.4,1.6-0.5,2.5-0.6
			c1.7-0.1,3.4,0.2,5.2-0.4c1.7-0.6,3.6-0.1,5.4-0.6c1.7-0.5,3.6,0,5.5-0.5c1.7-0.5,3.6-0.2,5.4-0.6c2-0.4,4.2,0.2,6.3-0.7
			c2.9,0.3,5.7-1,8.6-0.6c0.2,0,0.4,0.1,0.6,0c1.2-0.8,2.5-0.6,3.8-0.5c1.3,0.1,2.5-0.6,3.7-0.5c3.1,0.2,6.1-1,9.2-0.6
			c0.2,0,0.4,0.1,0.6,0c1.2-0.9,2.5-0.6,3.7-0.5c1.3,0.1,2.5-0.7,3.7-0.6c2.9,0.2,5.7-1,8.6-0.6c0.1,0,0.2,0,0.3,0
			c1.2-0.8,2.5-0.6,3.7-0.5c1.3,0.1,2.5-0.6,3.7-0.5c2.9,0.1,5.7-1,8.6-0.6c0.2,0,0.4,0.1,0.6,0c1.2-0.9,2.5-0.6,3.7-0.5
			c1.4,0.1,2.5-0.5,3.7-0.6c1.7-0.1,3.4,0,5.2-0.5c1.9-0.5,4,0.1,6-0.7c3.1,0.4,6.1-1,9.1-0.6c0.2,0,0.4,0.1,0.6,0
			c1.1-0.8,2.3-0.7,3.5-0.5c1.3,0.2,2.3-0.5,3.5-0.6c1.7-0.2,3.5,0.4,5.2-0.4c1.5-0.7,3.4-0.2,5.1-0.6c1.9-0.5,4,0.1,6-0.7
			c3.1,0.4,6.1-1,9.1-0.6c0.2,0,0.4,0.1,0.6,0c1.2-0.9,2.5-0.6,3.8-0.5c1.3,0.1,2.5-0.6,3.7-0.6c3.1,0.2,6.1-1,9.1-0.6
			c0.2,0,0.4,0.1,0.6,0c1.1-1,2.5-0.4,3.5-0.5c2.4,1.9,2.3,5.3,4.4,6.6c1.3,0.5,1.7-0.4,2.5-0.4c1.9,0,3.9,0.3,5.7-0.5
			c2.9,0.4,5.7-1,8.6-0.6c0.3,0,0.7,0.1,0.8,0c1.1-0.9,2.3-0.6,3.5-0.5c1.3,0.1,2.2-0.8,3.5-0.6c3,0.4,5.9-1,8.9-0.6
			c0.2,0,0.4,0.1,0.6,0c1.2-0.9,2.5-0.6,3.8-0.5c1.3,0.1,2.5-0.5,3.7-0.6c1.5-0.1,3.1,0,4.6-0.5c1.2-0.4,2.6-0.1,4-0.1
			c1.3,0.1,2.4-0.8,3.8-0.6c1.2,0.2,2.4,0.1,3.4-0.7c0.4-9.4,0.2-66.8-0.2-69.4c-3.5,1.1-7,2.1-10.5,3.2c0.7,1,1.9,0.9,2.3,1.9
			c-0.4,0.3-0.7,0.7-1.1,0.8c-3,0.6-6,1.7-9,2.3c-2.6,0.5-5.1,1.4-7.7,2.1c-2.5,0.7-5,1.2-7.5,1.9c-2.6,0.7-5.3,1.6-7.9,2.1
			c-2.5,0.5-5,1.4-7.5,2c-2.7,0.6-5.3,1.3-8,2c-2.3,0.6-4.6,1.3-6.9,1.8c-2.7,0.6-5.4,1.3-8,1.9c-3.4,0.8-6.8,1.7-10.2,2.7
			c-1.7,0.5-3.5,0.8-5.2,1.3c-1.3,0.4-2.5,1-3.9,1c-1.3,0-2.4,0.9-3.8,1.1c-2.7,0.5-5.3,1.2-8,2c-2.5,0.7-5,1.3-7.5,1.9
			c-2.7,0.7-5.4,1.3-8.1,1.9c-2.5,0.5-4.9,1.4-7.4,2c-2.5,0.7-5,1.3-7.5,2c-4.1,1.1-8.2,2.2-12.3,3.1c-4.1,1-8,2.3-12.1,3.1
			c-2.8,0.5-5.7,1.4-8.5,2.1c-2.5,0.7-5.1,1.1-7.5,1.9c-4.1,1.3-8.4,2.2-12.6,3.3c-2.6,0.7-5.1,1.4-7.7,2c-2.5,0.6-5,1.2-7.5,1.9
			c-3,0.8-6,1.5-9,2.4c-1.2,0.3-2.4,0.5-3.6,1c-1.9,0.7-4,0.9-6,1.4c-2.1,0.5-4.1,1.1-6.1,1.7c-4.9,1.4-10,2.4-14.9,3.8
			c-4,1.1-8,2.1-12.1,3.1c-3.4,0.9-6.9,1.6-10.3,2.6c-2,0.5-3.9,0.9-5.9,1.6c-2.9,1-6,1.6-9,2.4c-1.9,0.5-3.7,1.3-5.8,1.1
			c-1.5,1.2-3.3,1.3-5,1.6c-4.1,0.8-8,2.2-12.1,3.1c-2.8,0.6-5.7,1.3-8.5,2.2c-1.9,0.6-3.9,0.9-5.9,1.6c-3,1-6.2,1.6-9.3,2.4
			c-1.9,0.5-3.8,0.8-5.7,1.4c-3.2,1-6.5,1.7-9.7,2.5c-2.7,0.7-5.3,1.4-8,2.1c-3.3,0.8-6.5,1.7-9.8,2.5c-1.9,0.5-3.7,1.2-5.6,1.5
			c-2.7,0.5-5.3,1.8-8.2,1.3c-0.5-0.5-1.1-1.1-1.5-1.5c-1.4-0.4-2.6,0.2-3.8,0.5c-2.7,0.6-5.3,1.3-8,2c-2.3,0.6-4.6,1.3-6.9,1.8
			c-1.8,0.4-3.2,1.5-4.9,2c0.1,1-1,1.3-1.2,1.8c0,3.8,0,7.4,0,10.8c0.6,1.1,1.7,1.2,2.3,0.8c1.2-0.8,2.3-0.4,3.5-0.5
			c0.7-0.1,1.5,0.2,2-0.1c1.1-0.6,2.3-0.7,3.5-0.5c1.3,0.2,2.3-0.7,3.5-0.6c2.9,0.2,5.7-1,8.6-0.6c0.2,0,0.4,0.1,0.6,0
			c1.1-0.8,2.3-0.7,3.5-0.5c1.3,0.2,2.3-0.7,3.5-0.6c3,0.4,5.9-0.8,9-0.6C68.8,343.2,67,341.7,66.5,339.7z M794.9,329.1
			c0.7,0,1.7-0.3,2.4,0.1c1.2,0.6,2.3,0.6,3.5,0.5c1.3-0.2,2.3,0.7,3.5,0.6c2.9-0.2,5.7,1,8.6,0.6c0.2,0,0.4-0.1,0.6,0
			c1.2,1,2.7,0.6,4,0.5c1.4-0.1,2.6,0.8,4,0.7c1.4-0.1,2.9-0.2,4.3,0.4c1.1,0.5,2.6,0.2,3.9,0.1c1.3-0.1,2.4,0.7,3.8,0.7
			c1.8-0.1,3.7-0.5,5.4,0.5c2.8-0.3,5.5,0.5,8.3,0.5c2.7,0.1,5.3,1,8,0.6c0.2,0,0.4,0,0.5,0.1c1.2,0.8,2.6,0.5,3.9,0.9
			c1.7,0.5,3.6,0,5.5,0.6c1.7,0.5,3.6,0.2,5.4,0.6c2,0.4,4.2,0.1,6.3,0.6c1.8,0.4,3.9-0.1,5.7,0.7c3.3-0.4,6.4,0.9,9.7,0.6
			c1.1-0.1,2.1,0.3,2.9,1.1c-0.3,2-1.8,3.5-2.4,5.6c1.9,0.4,3.7,0.1,5.5,0.6c1.9,0.5,4,0.1,6,0.6c1.8,0.4,3.6,0.2,5.5,0.6
			c1.8,0.4,3.8,0.4,5.7,0.5c2.7,0.2,5.3,1.1,8,0.7c0.3,0,0.7-0.1,0.8,0c1,1,2.3,0.6,3.5,0.5c1.4-0.1,2.4,0.9,3.8,0.6
			c0.2,0,0.3-0.1,0.5-0.2c0.2-0.2,0.4-0.4,0.6-0.6c0-3.8,0-7.5,0-11.5c-1.9-2-4.5-3-7.2-3.6c-2.4-0.5-4.6-1.5-7-1.8
			c-2.4-0.4-4.8-1.2-7.2-1.9c-2.2-0.7-3.7-0.1-5.1,1.3c-2.3,0.2-4.5-0.5-6.7-1c-3.5-0.8-6.8-1.9-10.3-2.7c-1.6-0.4-3.2-1.2-4.9-1.3
			c-2.2-0.1-4.1-1.5-6.3-1.4c-0.6-0.8-1.5-0.3-2.3-0.5c-2.5-0.8-5.1-1.6-7.7-2.2c-1.8-0.4-3.6-0.8-5.4-1.4c-4-1.3-8.1-1.9-12.1-3.1
			c-1.8-0.5-3.7-0.6-5.4-1.3c-3.8-1.5-7.8-2.1-11.7-3.2c-3.4-0.9-6.8-1.8-10.2-2.8c-2.6-0.7-5.2-1.2-7.8-1.9c-2.7-0.6-5.3-1.3-8-2
			c-2.4-0.6-4.7-1.4-7.1-2c-2.7-0.7-5.4-1.1-8-1.9c-3.4-0.9-6.8-1.8-10.2-2.7c-1.7-0.5-3.5-0.7-5.1-1.3c-3.8-1.5-7.9-2-11.8-3.1
			c-3.2-0.9-6.5-1.8-9.8-2.6c-3.5-0.8-7-1.8-10.5-2.7c-2.7-0.7-5.3-1.4-8-2.1c-2.5-0.6-5-1.4-7.5-1.9c-0.9-0.2-1.7-0.6-2.6-0.7
			c-0.9-0.1-1.8-0.4-2.7-1c-0.7-0.5-1.7-0.1-2.7-0.4c-2.2-0.7-4.4-1.5-6.6-1.8c-2.9-0.4-5.4-1.9-8.4-1.9c-2.9-1.5-6.2-2-9.4-2.7
			c-3.5-0.8-6.8-2.1-10.4-2.4c-4.5-2-9.4-2.5-14-3.9c-2.3-0.7-4.8-1.4-7.2-1.7c-2.5-0.4-4.7-1.8-7.2-1.8c-0.6-1.2-1.9-0.2-2.8-0.9
			c-0.8-0.6-2-0.7-3.1-0.7c-1,0-1.8-1-2.9-0.6c-1-1.1-2.4-0.3-3.6-0.9c-1.1-0.5-2.5-0.6-3.6-1c-5.3-1.9-10.9-2.8-16.4-4.4
			c-3.4-1-6.8-1.8-10.2-2.8c-2.6-0.7-5.2-1.3-7.8-1.8c-2.6-0.6-5.2-1.2-7.8-1.9c-2.1-0.6-4.2-1.2-6.4-1.7c-2.2-0.5-4.3-1.2-6.5-1.6
			c-3.7-0.8-7.4-1.9-11-2.9c-3.9-1.1-7.8-2.2-11.7-3.2c-3.5-0.8-7-1.5-10.4-2.5c-3.5-1-7-1.7-10.5-2.9c0-0.4,0-0.9,0-1.3
			c0.6-0.3,1.4-0.3,1.5-1.4c-3-1-6.3-1.5-9.2-2.8c-0.4,0.4-0.6,0.6-0.9,0.9c0,22.2,0,44.3,0,66.5c0,0.4,0.1,0.8,0,1.1
			c-0.1,0.7,0.4,1,0.9,1.5c1.1,0,2.2,0.1,3.3,0c1.2-0.2,2,0.8,3.2,0.6c3-0.4,5.9,1,8.9,0.5c0.1,0,0.2,0,0.3,0c1.3,1,2.9,0.6,4.3,0.5
			c1.5-0.1,2.8,0.9,4.3,0.6c2.6-0.4,5.1,1,7.7,0.5c0.1,0,0.2,0,0.3,0c1.1,1,2.5,0.6,3.7,0.5c1.5-0.2,2.6,0.7,4,0.7
			c1.4,0,2.8-0.4,4,0.5c2.6-0.4,5.1,0.6,7.7,0.6c1.2,0,2.4,0,3.3,0.7c1-0.4,1.9-0.6,2.5-1.4c0.4-2.1,1.5-3.8,2.6-5.6
			c0.7,0,1.4,0.1,2,0c0.9-0.3,1.3,0.6,2,0.6c1.1,0,2.3,0.1,3.4,0c1.3-0.2,2.3,0.8,3.5,0.6c3-0.4,5.9,1,8.9,0.6c0.2,0,0.4-0.1,0.6,0
			c1.4,1,3.1,0.2,4.6,0.6c1.5,0.5,3.1,0.5,4.6,0.5c2.4,0,4.7,1,7.2,0.6c2.1,1.3,4.4,0.3,6.7,1c1.8,0.6,4,0.1,6,0.6
			c1.7,0.4,3.6,0.1,5.5,0.6c1.8,0.4,3.8,0.1,5.7,0.6c1.8,0.4,3.9-0.2,5.7,0.7c3-0.4,5.9,0.9,8.9,0.6c0.3,0,0.6-0.1,0.8,0
			c1.1,0.7,2.3,0.7,3.5,0.5c1.3-0.2,2.3,0.7,3.5,0.6c3.1-0.3,6.1,1,9.1,0.6c0.2,0,0.4-0.1,0.6,0c1.2,0.9,2.5,0.6,3.7,0.5
			c1.4-0.1,2.5,0.7,3.7,0.6c2.9-0.2,5.7,1,8.6,0.6c0.2,0,0.5-0.1,0.6,0c1.1,1,2.5,0.5,3.8,0.5c1.4,0,2.6,0.9,4,0.7
			c3-0.4,5.9,1,8.9,0.5c0.1,0,0.2,0,0.3,0c1.1,0.9,2.5,0.6,3.7,0.5c1.4-0.1,2.5,0.7,3.7,0.6c2.9-0.3,5.7,1,8.6,0.6
			c0.1,0,0.2,0,0.3,0c1.2,0.8,2.5,0.6,3.7,0.5c1.3-0.1,2.5,0.6,3.7,0.5c2.9-0.1,5.7,1,8.6,0.6c0.2,0,0.4-0.1,0.6,0
			c1.3,0.9,2.7,0.5,4,0.5c1.5,0,2.8,0.9,4.3,0.6c1.6-0.2,3.2-0.1,4.9,1.1c-1.2,0.6-0.4,2-1.4,2.8c-0.8,0.6-0.4,2.1-1.7,2.6
			c0.4,0.4,0.6,0.6,0.9,0.9c1.4,0,2.8-0.2,4,0.6c3.3-0.4,6.4,1,9.2,0.6c1.3,0.4,2,0.7,2.6,1.6c0,1.6,0,3.3,0,5.2
			c3.3-0.4,6.3,1.2,9.2,0.4C793.1,333,792.8,330.4,794.9,329.1z M384.7,442.9c1.1,0,2-0.1,2.8,0c1,0.2,1.7-0.6,2.6-0.6
			c2,0,4,0.1,6-0.4c1.6-0.4,3.4-0.2,5.1,0c1.7,0.2,3.2-0.7,4.9-0.7c2.8,0.1,5.7,0.3,7.7-0.5c1.4-1.2,1.8-2.2,0.8-3.2
			c0.3-0.3,0.7-0.7,0.9-0.9c1-2.8,0.8-5.6,0.8-8.4c0-0.4,0-0.9,0.2-1.1c0.8-0.7,0.4-1.6,0.4-2.4c-0.1-0.9,0.7-1.4,0.7-2.3
			c-0.1-3,0.1-6.1-0.1-9.1c-0.2-3,0.6-5.9,0.6-8.9c0.1-5.4-1-10.8-0.6-16.2c0.1-1.2,0-2.5,0-3.7c0-0.5,0.1-1,0-1.4
			c-1.1-2.8-1.2-5.7-1.1-8.6c0-0.6-0.2-1.2-0.4-1.8c-0.7-2.4-1.9-4.8-1.2-7.3c-1.6-1.3-1.2-3.1-1.3-4.8c-1.2-0.3-1-1.7-2-2.4
			c-0.4,0-0.9,0-1.5,0c-4.4,0.1-8.7,0-13.1,0.5c-5.5,0.7-11,0-16.5,0.5c-7.4,0.7-15-0.3-22.5,0.7c-1.4,0.2-2.8,0-3.6,0
			c-2.3,0.3-1.7,2.2-3,3c-1.1,0.7-0.6,2.8-2,3.6c0,1.2,0,2.3,0,3.3c-0.8,1.2-1.2,2.3-1.1,3.7c0.1,2,0.1,4,0,6c0,1.3,0.1,2.6,1.2,3.5
			c0,0.5,0,0.9,0,1.4c0,1.9-0.1,3.7,1,5.6c0.6,1,1.1,2.5,0.6,3.8c0.4,0.4,1.1,0.8,1.1,1.1c-0.2,1.7,0.9,2.9,1.3,4.3
			c0.5,2,1.4,4,2.3,5.9c0.4,0.8,1,1.4,1.2,2.4c0.2,0.7,1.2,1.4,1.4,2.2c0.4,1.5,1.5,2.5,2.4,3.5c0,0.3-0.1,0.5,0,0.6
			c4.8,7.8,10.3,15.1,16.5,21.9c1.8,2,3.9,3.8,5.6,5.9C383.3,442.1,384.2,442.1,384.7,442.9z M548.3,364.7c-1.4,0.9-0.8,2.6-1.6,3.9
			c-0.3,0.4-0.1,1.1-0.1,1.6c0,1.5,0.2,3-0.6,4.3c-0.6,1-0.5,2.1-0.5,3.2c0,1.6,0.3,3.3-0.1,4.8c-0.3,1.3,0,2.7-0.6,3.7
			c-0.8,1.4-0.3,2.7-0.4,4.1c-0.1,1.3,0,2.6,0,4c0,6.9,0,13.8,0,20.7c0,1.7-0.5,3.5,0.5,5.2c-0.4,1.6,0.6,3,0.6,4.6
			c-0.1,1.6,0,3.2,0,4.8c0,0.7-0.2,1.6,0.1,2.2c1,2.2,1.1,4.4,1,6.7c0,0.5,0,0.9,0,1.3c1.2,1,2.6,1,3.9,1.3c1.6,0.3,3.2,0.2,4.8,0
			c1.7-0.2,3.2,0.6,4.9,0.6c2.4,0,4.8-0.5,7.2,0.5c3.5-0.4,6.8,1,10.3,0.5c1.3-1.5,2.9-2.8,4.4-4.2c3.5-3.6,6.6-7.5,9.9-11.2
			c1.5-1.7,2.8-3.8,4.2-5.7c1-1.5,1.9-3,3.1-4.4c1.2-1.4,1.6-3.2,2.8-4.5c1.8-2.2,3-4.8,4.2-7.4c1.2-2.4,2-5.1,3.2-7.5
			c0.4-0.7,0-1.5,0.4-2.1c0.3-0.3,0.7-0.7,1-1c0-1.1,0-2.2,0-3.4c1.9-1.8,1.7-4.1,1.7-6.3c0.4-0.4,0.7-0.7,1.1-1.1c0-4.3,0-8.6,0-13
			c0-0.4,0.2-0.9,0-1.1c-0.8-1.1-0.9-2.5-1.3-3.7c-0.4-1.3-1.9-2.2-1.6-3.9c0-0.1-0.1-0.1-0.2-0.2c-0.2,0-0.4,0-0.6,0
			c-0.5-0.6,0.1-1.8-1.4-2.3c-0.9,0-2.4-0.2-3.7,0c-1.5,0.2-2.7-0.6-4-0.6c-7.5-0.2-15,0.4-22.5-0.5c-5.5-0.7-11,0.3-16.5-0.5
			c-3.6-0.5-7.3-0.1-10.4-0.1c-2.2,0.8-1.5,3-3,3.6C548.3,362.7,548.3,363.7,548.3,364.7z M304,549.8c0.5,0,1.1,0.1,1.6,0
			c2.8-0.7,5.6-1.2,8.4-1.7c1.1-1.2,2.6-0.3,3.9-0.8c1.9-0.7,4-1.1,5.9-1.4c1.6-0.2,3.2-0.6,4.9-0.8c1.7-0.2,3.5-0.7,5.2-1
			c1.7-0.3,3.5-0.6,5.2-1.2c2.4-0.8,4.9-0.8,7.3-1.6c0.9-0.3,1.8-0.9,2.9-0.7c1.6,0.3,3-1,4.6-0.6c0.8-1.1,2.3-0.1,3.1-0.8
			c1-0.9,2.3,0.1,3.4-0.8c0.7-0.5,2.1,0,3.1-0.7c2.6,0.3,4.9-1.4,7.5-1.1c3.8-1.6,8-1.7,11.9-2.8c2.4-0.7,5-0.7,7.5-1.2
			c1.2-0.3,2.4-0.2,3.4-0.6c3-1.2,6.2-1.4,9.3-2.1c0.9-0.2,1.6-0.9,2.6-0.7c1.6,0.4,3.1-0.4,4.6-0.7c1.5-0.3,3.1-0.5,4.7-1
			c1.6-0.5,3.3-0.9,4.9-1.1c2.4-0.2,4.5-1.6,6.9-1.2c1-1.2,2.8,0.1,3.8-1.1c1.4,0.4,2.6-0.5,4-0.6c1.3-0.1,2.9-0.1,4-0.6
			c3.1-1.3,6.6-0.9,9.6-2.2c2.3,0.2,4.3-1.1,6.6-1.4c2.3-0.3,4.7-1,7.1-1.4c1.8-0.3,3.5-0.8,5.3-1c1.6-0.2,3.2-0.9,4.8-0.8
			c0.2,0,0.3-0.1,0.5-0.1c-0.1-0.1-0.1-0.1-0.2-0.2c0.5-0.4,1.1-0.7,1.7-1.2c-0.5-1.7-1-3.3-0.8-5c-1.1-1-0.2-2.4-0.6-3.4
			c-0.5-1.3-0.5-2.5-0.5-3.8c0-2,0-4,0-6c0-0.6,0.1-1.2-0.1-1.7c-0.9-2.2-1.1-4.6-1.1-6.9c0-1.3,0-2.6,0-3.9c-0.6-0.3-1-0.5-1.5-0.7
			c-0.1,0.1-0.2,0.3-0.4,0.4c-3.5,1-6.8,2.2-10.3,3.4c-2.3,0.8-4.6,1.7-7,2.3c-2.5,0.7-4.8,1.8-7.2,2.5c-1.3,0.4-2.6,0.5-3.8,1.1
			c-1.2,0.6-2.6,0.8-3.7,1.3c-2.3,1.1-4.8,1.7-7.2,2.6c-2.4,0.9-4.9,1.5-7.3,2.3c-4.7,1.6-9.5,3.3-14.2,4.8
			c-4.8,1.6-9.6,3.5-14.5,4.9c-0.7,1.2-2.2,0.1-3,1.1c-0.8,1-2.2,0.6-3.3,1c-4,1.3-7.9,2.9-11.9,4.2c-6,1.9-12,3.9-18,6
			c-4.7,1.6-9.5,3.2-14.2,4.8c-4.2,1.5-8.4,3-12.7,4.4c-6,2-12.1,3.8-18,5.9c-3.5,1.3-7.3,2-9.7,5.5c0,2.3,0,4.8,0,7.3
			C303.4,549.2,303.7,549.5,304,549.8z M658.6,541c-1.6-1.6-3.1-2.6-4.7-3.1c-3-1-6.1-1.7-9-2.9c-2.9-1.2-6-2.1-8.9-3.2
			c-2.5-1-5.2-1.7-7.8-2.5c-2.6-0.9-5.4-1.7-8-2.7c-4.8-1.8-9.7-3.2-14.5-4.9c-2.4-0.8-4.8-1.7-7.2-2.4c-2.4-0.8-4.7-2-7.3-2.4
			c-0.4-1-1.4-0.2-1.9-0.8c-0.6-0.7-1.5,0-2.1-0.4c-2.2-1.5-5-1.3-7.1-2.8c-8.5-2.6-16.8-5.7-25.2-8.4c-4.2-1.3-8.3-2.8-12.5-4.2
			c-3.3-1.1-6.7-2.2-10-3.3c-1.6-0.5-3.1-1.3-4.7-1.8c-1.7-0.5-3.3-1.1-5-1.7c-7.8-2.6-15.7-5.2-23.5-7.8c-2.3-0.8-4.6-1.6-6.9-2.4
			c-0.9,0.4-0.8,1.5-1.5,2c0,2.8,0,5.7,0,8.5c0,0.6,0.2,1.4,0,1.7c-1.2,1-0.2,2.4-1,3.6c-0.7,1,0.1,2.6-0.6,4
			c-0.5,1.1-0.1,2.6-0.1,3.9c0,1.5,0,3,0,4.5c0,0.7,0.2,1.4-0.4,2.1c-0.4,0.4-0.2,1.2,0,1.8c1.1,1,2.7,0.4,3.8,1.3
			c3.5,0.2,6.9,1.2,10.4,1.7c1.2,0.2,2.6,0.3,3.7,0.7c3,1,6.1,1.4,9.1,2c2.4,0.5,4.8,0.8,7.2,1.4c3.5,0.8,7,1.2,10.5,2
			c2.2,0.5,4.5,1.5,6.9,1.3c4,1.5,8.3,1.9,12.5,2.7c2.4,0.5,4.8,0.8,7.2,1.3c3,0.6,6.1,1.3,9.1,2c1.4,0.3,2.8,1,4.3,0.7
			c1.1,1.2,2.9,0,4.1,1.1c1.4-0.4,2.6,0.6,4,0.6c1.2,0,2.4,0.5,3.7,0.6c1.3,0.1,2.5,1,3.8,1c2.4,0,4.5,1.5,6.9,1.2
			c0.8,1.1,2.2,0.1,3.1,0.8c1,0.9,2.3-0.1,3.4,0.8c0.7,0.5,2.1,0.5,3.1,0.5c1.6,0.1,3.1,0.5,4.6,0.8c1.5,0.3,3.1,0.2,4.4,1
			c3.4,0,6.5,1.3,9.8,1.9c3.3,0.6,6.6,1.3,9.9,2c2.3,0.5,4.8,0.9,7.2,1.4c2.3,0.5,4.7,1,7,1.5c2.3,0.4,4.5,1.5,6.9,1.3
			c1.2,1,2.4,0.3,3.6,0.4C658.6,546.6,658.6,543.8,658.6,541z M473.7,517.7c-0.5-0.5-1-1.2-1.7-0.8c-1.9,0.9-4.3,0.5-6.1,1.7
			c-1.4-0.4-2.7,0.5-4,0.6c-1.4,0.1-2.7,0.7-4.1,1c-1.3,0.3-2.7,0.4-4,0.6c-1,0.2-1.9,0.6-2.9,0.7c-1.4,0.2-2.8,0.2-4,0.5
			c-2.7,0.7-5.4,1.1-8.1,1.7c-1.2,0.3-2.4,0.2-3.4,0.6c-2.9,1.2-6.1,1.1-9,2.2c-1.4-0.4-2.7,0.4-4,0.7c-1.3,0.3-2.9,0-4.1,1
			c-4,0.4-7.9,1.6-11.9,2.2c-3.2,0.5-6.3,1.3-9.5,1.9c-3.3,0.7-6.6,1.3-9.9,2c-2.3,0.5-4.8,0.8-7.2,1.4c-3.2,0.7-6.4,1.4-9.6,2
			c-2.4,0.5-4.9,1.1-7.4,1.4c-2.7,0.3-5.4,1-8.1,1.6c-1.2,0.3-2.4,0.2-3.4,0.6c-2.9,1.2-6,1.4-9.1,2.1c-2.4,0.5-4.7,1.1-7.2,1.3
			c-1.9,0.2-3.8,0.9-5.8,1.1c-1.9,0.2-3.9,0.7-5.8,1.2c-2.1,0.5-4.1,1-6.2,1.4c-3.3,0.7-6.6,1.6-10,1.9c-1.1,0.1-2.3,0.5-3.4,0.8
			c-0.2,0.1-0.4,0.4-0.6,0.5c0,1.2,0,2.4,0,3.6c0.3,0.3,0.5,0.5,0.6,0.6c2.4,0.7,4.6-0.8,6.9-0.4c0.9-1,2.2-0.2,3.2-0.6
			c1.1-0.5,2.1-0.5,3.2-0.5c0.4,0,0.8,0.1,1.1,0c1.6-0.9,3.5-0.9,5.2-1c1.8-0.2,3.6-1.1,5.4-0.7c0.8-0.9,1.9-0.7,2.9-0.5
			c1.1,0.2,1.8-0.8,2.9-0.7c1.8,0.2,3.6-0.4,5.4-0.7c2.3-0.3,4.7-0.5,6.9-1.1c1.6-0.4,3.1-0.2,4.6-0.6c0.8-0.2,1.6-0.6,2.3-0.4
			c1,0.2,1.7-0.8,2.6-0.6c1.8,0.3,3.4-0.5,5.1-0.7c2.3-0.3,4.7-0.5,6.9-1.1c1.6-0.4,3.2-0.1,4.6-0.6c2.8-1,5.8-1.1,8.7-1.5
			c3.1-0.4,6.1-1.3,9.2-1.3c1.2-0.9,2.8-0.1,3.9-0.7c0.9-0.5,1.6-0.4,2.4-0.3c1,0.1,1.6-0.9,2.6-0.6c1.8,0.5,3.6-0.4,5.4-0.7
			c2.3-0.3,4.7-0.5,6.9-1.1c1.6-0.4,3.2-0.1,4.6-0.6c1.2-0.5,2.4-0.2,3.5-0.5c1.1-0.3,2.2-0.7,3.5-0.5c0.4,0.1,0.9,0.2,1.1,0
			c1.2-1,2.8-0.7,4.1-1c1.4-0.3,2.9-0.5,4.3-0.6c1.8-0.1,3.4-1.1,5.2-0.6c0.9-0.9,2.2-0.2,3.1-0.6c1.2-0.5,2.3-0.5,3.5-0.5
			c0.3,0,0.7,0.1,0.8,0c0.9-1,2.1-0.5,3.2-0.5c1.1-0.1,2-0.8,3.2-0.6c1.8,0.2,3.6-0.9,5.4-0.5c2.6-1.1,5.4-0.9,8.1-1.6
			c1.2-0.3,2.5-0.7,3.7-0.6c1.4,0.1,2.5-0.7,3.7-0.6c0.8,0.1,1.1-0.5,1.5-1.3c-0.6-1.1-0.8-2.3-0.6-3.6c0.1-1.2-0.8-2.2-0.6-3.5
			C473.9,520.3,473.7,518.9,473.7,517.7z M658.6,550.5c-1.6,1-2.7-0.3-3.9-0.2c-1.3,0.1-2.5-0.6-3.7-0.7c-1.2-0.2-2.6-0.1-3.6-0.7
			c-1.2-0.6-2.4-0.2-3.7-0.7c-1-0.5-2.4-1-3.7-0.7c-1-1.1-2.4-0.3-3.6-0.9c-1.1-0.6-2.5-0.6-3.6-0.7c-1.3-0.1-2.4-0.9-3.7-0.7
			c-1.3,0.2-2.5-0.4-3.7-0.7c-1.1-0.2-2.4-0.4-3.6-0.9c-1.1-0.5-2.5-0.2-3.7-0.6c-1.3-0.3-2.6-0.6-4-0.8c-1.1-0.2-2.4-0.8-3.5-0.9
			c-1.3,0-2.5-0.7-3.7-0.7c-1.3,0.1-2.4-0.9-3.7-0.6c-1-1.2-2.4-0.3-3.6-0.9c-1-0.5-2.4-0.6-3.6-0.7c-1.3-0.1-2.4-0.7-3.7-0.7
			c-1.2-0.1-2.6-0.2-3.6-0.7c-1.2-0.6-2.7,0.3-3.6-0.9c-1.3,0.3-2.5-0.4-3.7-0.7c-1.2-0.3-2.5-0.1-3.7-0.7c-1.1-0.6-2.5-0.4-3.7-0.7
			c-1.2-0.3-2.4-0.8-3.7-0.8c-1.2,0-2.4-0.7-3.7-0.5c-0.9-1.3-2.6,0.1-3.5-1.1c-1.3,0.4-2.5-0.4-3.7-0.6c-1.2-0.3-2.5-0.7-3.8-0.5
			c-1-1.2-2.4-0.3-3.6-0.9c-1.1-0.5-2.4-0.6-3.6-0.7c-1.3-0.1-2.4-0.7-3.7-0.7c-1.2-0.1-2.5-0.4-3.7-0.6c-1.2-0.2-2.4-0.9-3.6-0.9
			c-1.3,0.1-2.6-0.3-3.7-0.8c-1.3-0.5-2.6-0.3-3.9-0.8c-1.1-0.4-2.4-0.7-3.7-0.7c-1.3,0-2.4-0.7-3.7-0.8c-1.2-0.1-2.6-0.1-3.6-0.7
			c-1.2-0.6-2.6,0.3-3.6-0.9c-1.3,0.3-2.4-0.6-3.7-0.6c-1.3,0-2.4-0.9-3.7-0.5c-0.9-1.3-2.6,0.2-3.5-1.1c-1.3,0.2-2.5-0.3-3.7-0.6
			c-1.2-0.3-2.7-0.3-3.7-0.8c-1.2-0.6-2.7,0.3-3.6-0.9c-1.3,0.5-2.5-0.7-3.8-0.6c-0.2,0.2-0.4,0.5-0.8,1c0,3.3,0,6.7,0,10.8
			c-0.1,0.1-0.5,0.4-0.9,0.6c0.2,0.2,0.4,0.6,0.6,0.6c1.5-0.2,2.8,0.8,4.3,0.6c0.8-0.1,1.3,0.7,2,0.6c0.8-0.1,1.8-0.3,2.5,0
			c2.6,1.1,5.5,0.8,8.1,1.6c1.3,0.4,2.7,0.1,4,0.6c1.2,0.4,2.7,0.1,4,0.6c1.1,0.4,2.3,0.3,3.4,0.6c1.2,0.3,2.5,0.3,3.7,0.5
			c2.5,0.5,5,0.6,7.5,1.2c1,0.3,2.1,0.1,3.2,0.5c1,0.4,2.4-0.2,3.4,0.6c3.1-0.1,6.1,1,9.2,1.2c1.5,0.1,3.2,0.1,4.6,0.5
			c2.9,0.9,5.9,0.6,8.7,1.6c1.1,0.4,2.3-0.2,3.5,0.5c1,0.5,2.5-0.1,3.7,0.7c3-0.3,5.7,1,8.6,1.2c1.5,0.1,3.1,0.2,4.6,0.6
			c0.8,0.2,1.6,0.6,2.3,0.4c1-0.2,1.6,0.8,2.6,0.6c2-0.4,4,0.5,6,0.7c1.4,0.1,3.1,0,4.3,0.5c1.6,0.7,3.3-0.1,4.7,1
			c1.9-0.4,3.6,0.8,5.4,0.5c0.8-0.1,1.3,0.7,2,0.6c0.7-0.1,1.7-0.3,2.2,0.1c0.9,0.7,1.8,0.4,2.7,0.5c1,0,1.8,1,2.9,0.6
			c1-0.4,1.7,0.6,2.6,0.6c1.2,0,2.3-0.1,3.5,0.5c1,0.4,2.3,0.1,3.5,0.6c1.2,0.5,2.6,0.1,4,0.5c1.3,0.4,2.9,0.5,4.3,0.6
			c1.8,0.1,3.6,0.8,5.4,0.8c1.3,0,2.7,0.3,4,0.6c0.9,0.2,1.8,0.5,2.6,0.4c1-0.1,1.6,0.9,2.6,0.6c1.8-0.4,3.6,1,5.4,0.5
			c1.1,1,2.6,0.1,3.7,0.7c1.7,0.8,3.2,0.3,4.8,0.4C658.6,554.2,658.6,552.7,658.6,550.5z M182.5,333.7c0.7,0,1.1-0.1,1.6,0
			c2.2,0.4,4.2-0.7,6.3-0.6c1.5,0.1,3.1,0.3,4.6-0.4c1-0.5,2.4-0.1,3.7-0.1c1.3,0.1,2.4-0.8,3.8-0.6c3,0.4,5.9-1,8.9-0.5
			c0.1,0,0.2,0,0.3,0c1.2-0.9,2.7-0.6,4-0.5c1.5,0.1,2.8-0.9,4.3-0.6c2.5,0.4,4.9-1,7.4-0.6c0.1,0,0.2,0,0.3,0
			c0.8-0.9,1.9-0.7,2.9-0.5c1.1,0.2,1.8-0.8,2.9-0.7c3.3,0.3,6.6-0.9,10-0.5c2-0.8,4.2-0.5,6.3-0.6c0.2,0,0.4,0.1,0.6,0
			c1.1-0.9,2.5-0.7,3.7-0.5c1.5,0.2,2.6-0.8,4-0.6c3,0.3,5.9-1,8.9-0.6c0.2,0,0.5,0.1,0.6,0c1.2-1.1,2.7-0.6,4-0.5
			c1.4,0.1,2.6-0.9,4-0.7c2.7,0.4,5.3-1,8-0.5c0.1,0,0.2,0,0.3,0c0.9-0.8,1.9-0.7,2.9-0.5c1.2,0.1,2.1-0.6,3.2-0.6
			c2.1-0.1,4.3,0.2,6.3-0.6c3.1,0.4,6.1-1,9.1-0.6c0.2,0,0.4,0.1,0.6,0c1.2-0.9,2.5-0.6,3.8-0.5c1.3,0.1,2.5-0.6,3.7-0.6
			c3.1,0.2,6.1-1,9.1-0.6c0.2,0,0.5,0.1,0.6,0c1.1-1,2.5-0.6,3.7-0.5c1.5,0.2,2.6-0.7,4-0.6c3,0.2,5.9-1,8.9-0.6
			c0.2,0,0.5,0.1,0.6,0c1.1-1.1,2.5-0.5,3.8-0.5c1.3,0,2.4-0.9,3.7-0.7c2.7,0.4,5.3-1,8-0.5c0.1,0,0.2,0,0.3,0
			c1.1-1,2.5-0.6,3.7-0.5c1.5,0.2,2.6-0.8,4-0.6c3,0.3,5.9-1,8.9-0.6c0.1,0,0.2,0,0.3,0c1.3-1,2.9-0.6,4.3-0.5
			c1.5,0.1,2.8-0.9,4.3-0.6c2.6,0.4,5.1-1,7.7-0.5c0.1,0,0.2,0,0.3,0c1.1-1,2.5-0.6,3.7-0.5c1.5,0.2,2.6-0.8,4-0.6
			c2.8,0.3,5.5-0.9,8.3-0.6c0.1,0,0.2,0,0.3,0c1-0.8,2.1-0.5,3.2-0.6c1.2-0.1,2.3,0.2,3.5-0.5c0.9-0.5,2.3-0.3,3.4,0
			c1.2,0.2,2.1-0.7,3.2-0.6c1.2,0,2.6,0.3,3.7-0.1c1.1-0.4,2.1-0.4,3.2-0.5c0.3,0,0.6-0.4,0.8-0.7c0-1.5,0-3,0-4.4
			c-0.8,0-1.4,0.1-1.9-0.5c-0.2,0.2-0.5,0.5-0.6,0.5c-2.3-0.2-4.6,0.6-6.9,0.5c-2.5,0-4.9,1-7.4,0.6c-1.2,0.8-2.5,0.7-3.7,0.5
			c-1.3-0.1-2.5,0.6-3.7,0.5c-3.1-0.2-6.1,1-9.1,0.6c-0.2,0-0.4-0.1-0.6,0c-1.2,0.9-2.5,0.6-3.7,0.5c-1.3-0.1-2.5,0.5-3.7,0.6
			c-1.7,0.1-3.5-0.3-5.2,0.6c-2.9-0.4-5.7,0.8-8.6,0.5c-2.4-0.3-4.7,0.9-7.2,0.6c-0.1,0-0.2,0-0.3,0c-0.9,1.1-2.1,0.6-3.2,0.5
			c-1.2-0.1-2,0.8-3.2,0.7c-3-0.4-5.9,0.9-8.9,0.5c-0.2,0-0.4-0.1-0.6,0c-1.2,1-2.7,0.6-4,0.5c-1.4-0.1-2.6,0.8-4,0.7
			c-1.4-0.1-3-0.5-4.3,0.5c-2.7-0.4-5.3,0.6-8,0.6c-3-0.1-5.9,1-8.9,0.6c-0.1,0-0.2,0-0.3,0c-1.2,0.9-2.7,0.6-4,0.5
			c-1.4-0.1-2.6,0.8-4,0.6c-2.4-0.4-4.7,0.9-7.2,0.6c-1.1,0.8-2.3,0.7-3.5,0.5c-1.3-0.2-2.3,0.7-3.5,0.6c-3.1-0.2-6.1,1-9.1,0.6
			c-0.2,0-0.4-0.1-0.6,0c-1.2,0.9-2.5,0.7-3.7,0.5c-1.5-0.2-2.6,0.8-4,0.6c-3.4-0.3-6.6,1-10,0.6c-0.1,0-0.2,0-0.3,0
			c-1.2,0.8-2.5,0.6-3.7,0.5c-1.3-0.1-2.5,0.6-3.7,0.5c-3.1-0.2-6.1,1-9.1,0.6c-0.2,0-0.4-0.1-0.6,0c-1.4,1-3.1,0.2-4.6,0.6
			c-1.5,0.5-3.1,0.4-4.6,0.5c-1.3,0.1-2.5,0.1-3.8,0.4c-1.1,0.3-2.2,0.7-3.4,0.7c-1.8,0.1-3.7-0.3-5.5,0.6c-3.1-0.4-6.1,0.7-9.1,0.6
			c-2.7-0.1-5.3,1-8,0.6c-0.1,0-0.2,0-0.3,0c-1.1,1-2.5,0.6-3.7,0.5c-1.5-0.2-2.6,0.8-4,0.6c-3-0.4-5.9,0.9-8.9,0.6
			c-0.1,0-0.2,0-0.3,0c-1.1,0.9-2.5,0.6-3.7,0.5c-1.3-0.1-2.5,0.5-3.7,0.6c-1.9,0-3.8,0.1-5.6,0.9
			C182.5,330.3,182.5,331.9,182.5,333.7z M535.2,308.3c0.3,0.3,0.6,0.9,0.8,0.9c1.2,0,2.3,0.4,3.5,0.5c1.9,0.3,3.8,0.1,5.7,0.5
			c1.8,0.4,3.8,0.4,5.7,0.5c2.9,0.2,5.7,1.1,8.6,0.7c0.3,0,0.7-0.1,0.8,0c1,1,2.3,0.6,3.5,0.5c1.3-0.1,2.2,0.8,3.5,0.6
			c3-0.4,5.9,1,8.9,0.6c0.2,0,0.4-0.1,0.6,0c1.2,0.9,2.5,0.6,3.7,0.5c1.3-0.1,2.5,0.7,3.7,0.6c3.1-0.2,6.1,1,9.1,0.6
			c0.2,0,0.5-0.1,0.6,0c1.1,1.1,2.5,0.6,3.7,0.5c1.5-0.1,2.6,0.8,4,0.6c2.8-0.3,5.5,0.9,8.3,0.6c0.1,0,0.2,0,0.3,0
			c1,0.9,2.3,0.7,3.5,0.5c1.3-0.2,2.3,0.7,3.5,0.6c3.1-0.3,6.1,0.9,9.1,0.6c0.2,0,0.5-0.1,0.6,0c1.1,1.1,2.5,0.5,3.8,0.5
			c1.3-0.1,2.4,0.9,3.8,0.7c3.1-0.4,6.1,1,9.1,0.5c0.1,0,0.2,0,0.3,0c1.1,0.9,2.5,0.6,3.7,0.5c1.3-0.1,2.5,0.5,3.7,0.6
			c1.7,0.1,3.4,0,5.2,0.5c1.9,0.5,4,0.1,6,0.6c1.6,0.5,3.4,0,5.2,0.5c1.7,0.5,3.6,0.1,5.4,0.6c1.6,0.4,3.4,0.2,5.2,0.6
			c1.7,0.4,3.4,0.2,5.2,0.6c2,0.4,4.2,0,6.3,0.6c1.5,0.4,3.2,0,4.9,0.6c1,0.4,2.3,0.2,3.4,0c1.3-0.2,2.2,0.7,3.5,0.6
			c1.7-0.1,3.4,0,5.2,0.5c1.8,0.4,3.8,0.1,5.7,0.6c1.8,0.4,3.8,0.2,5.7,0.6c2.3,0.4,4.8,0.1,7.2,0.6c1.9,0.4,3.8-0.2,5.7,0.6
			c0.9,0.4,2.2-0.2,3,0.3c1,0.5,1.8,0.3,2.7,0.3c1.1-0.1,1.9,0.4,2.9,0.6c1.8,0.3,3.6-0.1,5.5,0.5c1.7,0.5,3.6,0.2,5.4,0.6
			c1.8,0.4,3.8,0.2,5.7,0.6c2,0.4,4.2-0.2,6.3,0.7c3.4-0.3,6.6,1,10,0.6c0.3,0,0.6-0.1,0.8,0c2,1.1,4.1,0.3,6.2,0.6
			c0-1.7,0-3.1,0-4.7c-1.2-0.4-2.4-1.1-3.8-1.1c-0.9,0-2,0.3-2.8-0.1c-1.2-0.5-2.3-0.6-3.5-0.5c-1.3,0.2-2.3-0.7-3.5-0.6
			c-3.1,0.3-6.1-1-9.1-0.6c-0.2,0-0.4,0.1-0.6,0c-1.2-0.9-2.5-0.7-3.7-0.5c-1.5,0.2-2.7-0.6-4-0.6c-1.8,0-3.6-0.1-5.5-0.4
			c-2.5-0.5-5.1-0.4-7.7-0.6c-3.1-0.2-6.2-1.1-9.4-0.7c-0.2,0-0.5,0.1-0.6,0c-0.8-1.2-2.3-0.2-3.4-0.9c-1.1-0.7-2.6-0.2-3.9-0.2
			c-0.6,0-1.3,0.2-1.7,0c-1.1-0.8-2.3-0.6-3.5-0.5c-1.3,0.2-2.3-0.6-3.5-0.6c-1.7,0-3.5,0.2-5.2-0.5c-0.9-0.4-2.1-0.2-3.1,0
			c-1.2,0.2-2-0.7-3.2-0.6c-1.7,0.1-3.5,0.1-5.2-0.5c-1.1-0.4-2.5-0.2-3.7,0c-1.4,0.2-2.5-0.7-3.8-0.6c-3.2,0.3-6.3-1-9.4-0.6
			c-0.2,0-0.4,0.1-0.6,0c-1.2-0.9-2.5-0.7-3.7-0.5c-1.5,0.2-2.6-0.8-4-0.6c-3,0.3-5.9-1-8.9-0.6c-0.2,0-0.5,0.1-0.6,0
			c-0.6-0.8-1.6-0.7-2.3-0.5c-1,0.2-1.6-0.8-2.6-0.6c-3.1,0.4-6.1-0.9-9.1-0.6c-0.2,0-0.4,0.1-0.6,0c-1.2-0.9-2.5-0.7-3.7-0.5
			c-1.5,0.2-2.6-0.8-4-0.6c-3.4,0.3-6.6-1-10-0.6c-0.1,0-0.2,0-0.3,0c-1.2-0.8-2.5-0.6-3.7-0.5c-1.3,0.1-2.5-0.6-3.7-0.5
			c-3.1,0.2-6.1-1-9.1-0.6c-0.2,0-0.4,0.1-0.6,0c-0.9-0.7-1.9-0.6-2.9-0.5c-1.2,0.1-2.1-0.4-3.2-0.6c-1.5-0.2-3,0.1-4.6-0.5
			c-1.5-0.5-3.2-0.1-4.9-0.6c-1.2-0.4-2.7-0.2-4,0c-1.4,0.2-2.6-0.9-4-0.6c-2.9,0.4-5.7-0.9-8.6-0.5c-0.1,0-0.2,0-0.3,0
			c-1.2-0.9-2.7-0.7-4-0.5c-1.5,0.2-2.9-0.7-4.3-0.6c-3,0.3-5.9-1-8.9-0.6c-0.1,0-0.2,0-0.3,0c-2.1-1.3-4.6,0.1-6.6-1.1
			c-2.7,0.3-5.3-0.5-8-0.7c-2.2-0.1-4.4-0.4-6.6-0.5c-0.3,0-0.6-0.3-0.8-0.5c-0.2,0.8-1.1,0.2-1.3,0.8
			C535.2,305.8,535.2,307.1,535.2,308.3z M418,371.4c0.2,2.2-0.3,4.4,0.4,6.5c-0.2,0.2-0.4,0.4-0.3,1c0.2,0.1,0.7,0.4,0.9,0.6
			c0.5,4.2-0.2,8.1,0.6,12c0.5,2.5,0.3,5.1,0.6,7.7c0.3,2.8,0.6,5.8-0.5,8.6c0.4,3.7-0.6,7.4-0.6,11.1c0,2.6,0,5.1,0,8.1
			c-0.2,0.1-0.8,0.4-1.2,0.6c0,3,0,5.8,0,9.4c0,0-0.6,0.1-1.1,0.3c1.6,1.1,3.2,1.8,4.7,2.5c4.5,2.1,8.8,4.3,13.3,6.4
			c2.3,1.1,4.6,2.2,6.8,3.4c0.9,0.4,1.9,1.2,3,0.4c-0.6-1.3-1.2-2.5-1.9-3.7c-0.7-1.2-1.4-2.5-2-3.7c-0.7-1.3-1-2.8-2.4-3.5
			c0.9-1.9-1.8-2.7-1-4.5c-1.3-1.1-1.9-2.6-1.8-4.2c-0.5-0.1-0.7-0.1-1.1-0.2c0-0.8,0.1-1.6,0-2.3c-0.2-0.7-0.8-1.2-1.1-1.8
			c-0.3-0.7,0-1.4-0.4-2.1c-1.2-3-1.8-6.1-2.5-9.2c-0.2-0.8-0.9-1.4-0.6-2.3c0.4-1.3-0.1-2.6-0.6-3.7c-0.5-1-0.5-1.9-0.5-2.9
			c0-1.4,0.2-2.9-0.1-4.2c-0.2-0.7-0.5-1.4-0.4-2.1c0.2-0.8-0.7-1.2-0.6-2c0.5-4.1-0.6-8.2-0.6-12.3c0.1-6.3,0-12.7,0-19.1
			c-3.5,0-6.8,0-10.3,0C417,368.1,416.4,370,418,371.4z M535.2,366.1c0,3.7,0.1,7.3,0,10.8c-0.1,3.4,0.3,6.9-0.5,10.3
			c-0.4,1.8-0.2,3.8,0,5.7c0.2,2-0.9,3.8-0.6,5.7c0.2,1.3,0,2.7-0.5,4c-0.6,1.7-0.9,3.6-0.6,5.4c0.1,0.8-0.3,1.6-0.5,2.3
			c-0.7,2.7-1.3,5.4-1.8,8.1c-0.4,2.2-0.9,4.5-2.2,6.6c0,0.6,0,1.4,0,2.3c-0.3,0.3-0.8,0.6-1.2,0.9c0,0.9,0,1.6,0,2.4
			c-0.9,0.6-1.6,1.6-1.6,2.5c0,1.7-1,2.9-1.8,4.1c-0.9,1.4-1.2,3.2-2.2,4.5c-0.3,0.4-0.4,1.2-0.9,1.6c-0.7,0.5,0,1.4-0.8,2
			c-1.5,1.1-1.1,3.3-2.6,4.5c0.8,0.5,1.3,0.3,2,0.1c2.8-0.9,5.1-2.7,7.8-3.7c3.3-1.3,6.4-3.3,9.8-4.6c2.4-0.9,4.7-2.3,7.1-3.4
			c0.3-0.2,0.6-0.5,0.8-0.7c0-0.9,0-1.6,0-2.6c-0.3-0.2-0.8-0.6-1.2-0.9c0.1-3.9-0.2-7.6-1-11.4c-0.6-2.8-0.8-5.8-0.8-8.8
			c0.2-8,0.1-15.9,0-23.9c0-2.3,1-4.5,0.6-6.9c0-0.1,0-0.2,0-0.3c1.3-0.8,0.3-2.2,0.9-3.3c0.6-1,0.2-2.6,0.2-3.9c0-0.8,0-1.7,0-2.8
			c0.4-0.2,0.8-0.5,1.1-0.7c0-1.3,0.1-2.2,0-3.1c-0.2-1,1.3-1.7,0.4-2.9C541.9,366.1,538.7,366.1,535.2,366.1z M475.5,407.2
			c0,0.8,0.3,1.7-0.1,2.2c-0.7,1.1-0.6,2.2-0.5,3.2c0.1,1.2-0.7,2.2-0.7,3.5c0.1,4.2-0.1,8.3,0.1,12.5c0.1,4.2-0.3,8.4,0.4,12.6
			c0.5,2.9,0.1,6,0.1,9.1c-0.1,3,0.7,5.9,0.6,8.9c-0.2,5.7-0.1,11.4-0.1,17c0.6,0.3,0.4,1,0.8,1.3c3.3,0,6.6,0,9.9,0
			c0.1-0.3,0.1-0.4,0.1-0.6c0.3-4.9-0.6-9.9,0.6-14.8c-0.3-5.5,0.7-11,0.6-16.5c-0.2-11.8-0.1-23.7-0.1-35.5c0-0.2-0.1-0.4-0.1-0.5
			c-0.3-0.3-0.7-0.7-1-1c0-0.7,0-1.5,0-2.2c-1.1-1.1-2.1-2.2-3.2-3.2c-1.4,0-2.7,0-4.1,0c-0.3,1.1-1.7,0.9-2.4,2
			C476.7,405.9,476.4,406.7,475.5,407.2z M55.2,329.4c1.4,1,2.8,1.1,4.1,0.7c1-0.3,2-0.8,3-1c1.2-0.2,2.2-1,3.4-0.7
			c0.6-1.2,1.9-0.2,2.8-0.9c0.8-0.6,2-0.7,3.1-0.7c1,0,1.9-0.5,2.9-0.7c1.7-0.3,3.5-0.7,5.1-1.3c4-1.3,8-2.1,12-3.2
			c1.4-0.4,2.8-0.6,4.1-1.2c1.4-0.6,3-0.5,4.4-1c2.1-0.8,4.4-1.2,6.7-1.8c3.3-0.8,6.5-1.6,9.8-2.5c2.7-0.7,5.3-1.4,8-2.1
			c3.3-0.8,6.5-1.7,9.8-2.5c2.7-0.7,5.3-1.4,8-2c2.7-0.6,5.3-1.5,8-2.1c2.6-0.5,5.2-1.2,7.7-2c1.7-0.5,3.5-0.8,5.1-1.3
			c3.4-1,6.8-1.8,10.3-2.7c2.5-0.6,5-1.1,7.5-1.9c3.3-1.1,6.7-1.8,10-2.6c2.5-0.6,5.1-1,7.5-1.9c3.9-1.3,7.8-2.1,11.8-3.2
			c3.4-0.9,6.8-2.1,10.4-2.4c3.7-1.8,7.8-2.1,11.7-3.3c2.3-0.7,4.8-1.4,7.2-1.7c2.5-0.4,4.7-1.8,7.2-1.8c0.6-1.2,1.9-0.2,2.8-0.9
			c0.8-0.6,2-0.7,3.1-0.7c1,0,1.9-0.5,2.9-0.7c2.6-0.5,5.1-1.6,7.7-2c2.6-0.4,5.2-1.3,7.7-2c2.6-0.6,5.1-1.5,7.7-2.1
			c3-0.7,6-1.6,9-2.4c2-0.5,4-0.8,6-1.3c2.1-0.5,4.1-1.2,6.1-1.7c2-0.5,4.1-1,6.1-1.6c2-0.6,4.1-1.2,6.1-1.6
			c3.4-0.7,6.7-1.9,10.1-2.6c3.4-0.7,6.8-1.8,10.3-2.6c3.3-0.8,6.5-1.7,9.8-2.5c2.6-0.6,5.1-1.3,7.7-2.1c1.6-0.5,3.4-0.4,4.9-1.1
			c1.3-0.6,2.7-0.8,4.1-1.1c3-0.8,6-1.6,9-2.3c1.4-0.3,2.7-0.7,4.1-1.1c2.7-0.7,5.3-1.6,7.9-2.1c3-0.6,6-1.7,9-2.4
			c2.5-0.6,5-1.2,7.5-1.8c2.5-0.7,5.1-1.3,7.6-2.1c3.3-1,6.7-1.8,10.1-2.4c0.9-0.2,1.6-0.6,2.3-1.4c-1.6-0.6-2.8-1.5-4.2-0.3
			c-1-0.3-1.7,0.5-2.6,0.7c-1.9,0.2-3.7,1.1-5.6,1.4c-2.6,0.4-4.9,1.5-7.5,1.9c-2.7,0.5-5.3,1.6-7.9,2.1c-1.6,0.3-3,1.1-4.6,1.2
			c-1.4,0.1-2.6,0.6-3.9,1c-1.3,0.4-2.7,0.4-3.9,0.8c-1.3,0.5-2.7,0.8-4.1,1.1c-1.8,0.4-3.7,0.8-5.4,1.4c-3.3,1.1-6.7,1.8-10,2.6
			c-1.8,0.4-3.6,0.8-5.4,1.4c-4,1.3-8,2.1-12.1,3.1c-2.6,0.7-5.3,1-7.7,1.9c-3.8,1.4-7.8,2.1-11.8,3.1c-3.3,0.9-6.7,1.8-10,2.7
			c-1.6,0.4-3.2,1.1-4.8,1.4c-1.5,0.2-3,0.6-4.4,1c-2.6,0.7-5.2,1.2-7.8,1.9c-2.6,0.7-5.1,1.4-7.6,2.2c-3,0.8-6,1.7-9,2.3
			c-3.7,0.7-7.2,1.9-10.8,2.7c-2.5,0.5-4.9,1.4-7.4,1.9c-1.9,0.4-3.7,1.3-5.8,1.1c-1.4,1.3-3.3,1.3-5,1.6c-4.1,0.8-8,2.2-12.1,3.1
			c-1.8,0.4-3.6,1-5.3,1.4c-1.8,0.5-3.6,1.1-5.5,1.3c-1.7,0.2-3.5,0.7-5.2,1.3c-3.4,1.1-6.8,1.9-10.3,2.7c-2.5,0.6-4.9,1.5-7.5,1.9
			c-2,0.3-3.9,1-5.9,1.5c-3.2,0.8-6.3,1.7-9.5,2.6c-4.1,1.1-8.2,2.1-12.3,3.2c-2.5,0.6-5,1.1-7.5,1.9c-3.3,1-6.7,1.8-10,2.7
			c-2.6,0.7-5.3,1.4-8,2.1c-2.5,0.6-5,1.3-7.5,1.9c-2.6,0.6-5.1,1.5-7.7,2c-2.7,0.4-5.3,1.5-8,2.1c-1.7,0.4-3.5,0.7-5.1,1.3
			c-3,1.1-6.2,1.6-9.2,2.5c-1.4,0.4-2.9,0.7-4.4,1.1c-1.4,0.4-2.9,0.8-4.4,1.1c-2.3,0.5-4.4,1.5-6.6,1.7c-2.9,0.3-5.5,1.4-8.3,2
			c-3.5,0.7-6.8,1.8-10.3,2.6c-2.4,0.6-4.7,1.7-7.3,1.7c-1.6,1.1-3.6,1.1-5.3,1.6c-1.8,0.5-3.8,1-5.7,1.4
			C57.1,328.2,55.8,328.2,55.2,329.4z M906.6,329.4c-0.5-0.2-0.7-0.8-1.4-0.9c-2.3-0.3-4.5-1.1-6.7-1.8c-4.9-1.5-10-2.4-14.9-3.8
			c-3.2-0.9-6.5-1.9-9.8-2.5c-2.8-0.5-5.7-1.3-8.5-2.2c-1.9-0.6-3.9-0.9-5.9-1.6c-3-1-6.2-1.6-9.3-2.4c-2.7-0.7-5.3-1.4-8-2
			c-2.6-0.6-5.1-1.5-7.7-2c-2.5-0.5-5-1.2-7.5-1.9c-3.1-0.9-6.3-1.6-9.4-2.6c-1.7-0.6-3.6-0.8-5.4-1.5c-1.9-0.7-3.8-0.9-5.7-1.3
			c-1.9-0.5-3.8-0.9-5.7-1.4c-2.3-0.6-4.6-1.2-6.9-1.9c-4-1.3-8-2.1-12.1-3.1c-2.6-0.7-5.2-1.1-7.7-1.9c-3.3-1.1-6.7-1.8-10-2.6
			c-2.6-0.7-5.3-1.5-7.9-2.1c-3-0.7-6-1.6-9-2.3c-3.3-0.7-6.5-2.1-9.8-2.4c-0.8-1-2.2-0.1-3.1-0.8c-1.5-1-3.2-1.1-4.8-1.4
			c-4.1-0.8-8.1-2-12.1-3.1c-4.1-1.1-8.2-2.2-12.3-3.2c-4.1-0.9-8-2.3-12.1-3.1c-2-0.4-4.1-1-6.1-1.6c-2-0.6-4.1-1.2-6.1-1.6
			c-3.4-0.7-6.7-1.8-10.1-2.6c-3.4-0.8-6.9-1.7-10.3-2.6c-1.9-0.5-3.9-0.7-5.7-1.4c-3.3-1.1-6.7-1.8-10-2.6
			c-1.8-0.4-3.6-0.8-5.4-1.4c-4-1.3-8-2.1-12.1-3.2c-2.7-0.7-5.3-1.5-8-2c-1.8-0.3-3.5-1.2-5.4-1.5c-1.7-0.3-3.5-0.7-5.1-1.3
			c-3.1-1.1-6.3-1.8-9.4-2.5c-3.4-0.8-6.9-1.7-10.4-2.5c-2.7-0.7-5.4-1.5-8.2-2.2c-2.7-0.7-5.4-1.7-8.2-2.2c-4.1-0.8-8-2.6-12.2-2.9
			c-2.9-1.5-6.2-1.3-9.1-2.8c-1.4,0.4-2.6-1-3.5-0.7c-0.9,0.7-1.4,1.1-2,1.5c1.5,1.2,3.3,1,4.9,1.4c3.3,0.8,6.6,1.6,9.7,2.6
			c3.8,1.2,7.8,1.5,11.5,3.1c3-0.2,5.6,1.2,8.3,1.9c3.1,0.7,6.3,1.9,9.4,2.6c3.5,0.8,6.8,2,10.4,2.4c4.5,2,9.3,2.6,14,3.9
			c3.3,0.9,6.7,1.8,10,2.6c3.4,0.8,6.9,1.7,10.3,2.6c3.2,0.9,6.5,1.7,9.8,2.5c2.3,0.6,4.6,1.6,6.9,1.9c2.9,0.3,5.6,1.3,8.3,2
			c3.9,1,7.9,2,11.8,3.1c2.6,0.8,5.3,1.8,8.1,1.8c1.5,1.1,3.4,0.9,5.1,1.5c1.6,0.6,3.4,1,5.1,1.3c3.3,0.5,6.5,1.7,9.8,2.5
			c3.5,0.9,7.1,1.7,10.5,2.7c1.9,0.6,3.9,0.9,5.9,1.6c2,0.7,4.1,1.1,6.1,1.8c1.9,0.6,4.1,0.6,6,1.4c1.9,0.8,4,1,5.9,1.4
			c4,0.9,7.8,2.3,11.8,3.2c2.6,0.6,5.1,1.7,7.7,2c3.6,0.4,6.8,2.2,10.4,2.4c3,1.5,6.3,1.9,9.4,2.7c3.4,0.8,6.8,2.1,10.4,2.4
			c3.7,1.8,7.8,2.4,11.7,3.3c4.8,1.2,9.5,2.9,14.5,3.5c0.6,1.2,1.9,0.2,2.8,0.9c0.8,0.6,2,0.7,3.1,0.7c1,0,1.9,0.5,2.9,0.7
			c1.7,0.3,3.5,0.7,5.1,1.3c3.3,1.1,6.7,1.8,10,2.6c1.8,0.4,3.7,0.8,5.4,1.4c3.1,1.1,6.3,1.6,9.5,2.5c1.4,0.4,2.9,0.7,4.3,1.2
			c1.5,0.6,3.1,0.6,4.7,1.1c3,0.9,6,1.6,9,2.3c2.7,0.7,5.3,1.4,8,2.1c2.5,0.6,5,1.2,7.5,1.9c2,0.6,4.1,0.9,6.1,1.7
			c1.5,0.5,3.1,0.8,4.6,1.2c1.4,0.3,2.7,0.7,4.1,1c3,0.7,6,2.1,9.1,1.8C906,329.9,906.3,329.7,906.6,329.4z M472.6,480.7
			c0,2.2,0,4.5,0,6.8c1.1,1,0.2,2.4,0.6,3.4c0.5,1.3,0.6,2.5,0.5,3.8c-0.3,3.5,0.6,6.8,0.6,10.3c1.3,1.3,0.2,3.1,0.9,4.7
			c0.6,1.4,0.2,3.3,0.2,5c0,1.3,0,2.6,0,4c0,0.5,0,0.9,0.1,1.4c0.6,1.9,0.9,3.8,1,5.8c0.1,2.4,0,4.7,0,7.1c0,0.6-0.2,1.3,0,1.7
			c1,1.2,0.1,2.6,0.6,3.7c0.6,1.3,0.4,2.5,0.5,3.8c0,0.6-0.2,1.3,0.1,1.9c0.2,0.2,0.4,0.4,0.6,0.6c4.7,0.1,4.7,0.1,6.1-0.8
			c-0.7-4.6,0.8-9.3,0.5-14c0-0.4-0.2-0.9,0-1.1c1-1.3,0-2.9,0.6-4c0.8-1.4,0.4-2.7,0.5-4.1c0.1-1.8,0-3.6,0-5.4
			c0-0.5-0.2-1.1,0-1.4c1.1-1.1,0-2.6,0.7-3.7c0.8-1.2,0.3-2.6,0.4-3.8c0.1-1.3,0-2.6,0-4c0-1.4,0.1-2.7,0.5-4
			c0.4-1.2-0.2-2.6,0.6-3.7c-0.4-3,0.7-5.9,0.5-8.8c-0.1-1.2,0.2-2.3,0.6-3.3c-0.6-1.8-1.5-3-3.6-3.7c-1.9,0-4.2,0.1-6.6,0
			c-2.3-0.1-4.6,0.1-6.4,1.7C473,480.5,472.8,480.6,472.6,480.7z M165.7,330.2c-1,0-2,0.1-2.9,0c-1-0.1-1.6,0.7-2.6,0.6
			c-3.1-0.4-6.1,0.9-9.1,0.6c-0.1,0-0.2,0-0.3,0c-1.2,0.8-2.5,0.6-3.7,0.5c-1.3-0.1-2.5,0.6-3.7,0.5c-3.1-0.2-6.1,1-9.1,0.6
			c-0.2,0-0.4-0.1-0.6,0c-1.2,0.9-2.7,0.6-4,0.5c-1.5-0.1-2.8,0.9-4.3,0.6c-2.5-0.4-4.9,1-7.4,0.5c-1.2,0.8-2.5,0.7-3.7,0.5
			c-1.3-0.1-2.5,0.6-3.7,0.5c-3.1-0.2-6.1,1-9.1,0.6c-0.2,0-0.4-0.1-0.6,0c-1.2,0.9-2.5,0.6-3.7,0.5c-1.3-0.1-2.5,0.7-3.7,0.6
			c-3.1-0.2-6.1,1-9.1,0.6c-0.1,0-0.2,0-0.3,0c-1.2,0.8-2.5,0.6-3.7,0.5c-1.3-0.1-2.5,0.5-3.7,0.6c-2.3,0-4.6,0.1-6.7,0.8
			c-1,1.7,1.2,2.4,1,3.8c-0.1,0.6,0.6,0.7,0.8,1.1c0.9,0,1.9,0,2.8,0c0.9,0,1.8,0.1,2.6-0.6c2.7,0.4,5.3-0.6,8-0.6
			c3,0.1,5.9-1,8.9-0.6c0.1,0,0.2,0,0.3,0c1.1-0.9,2.5-0.7,3.7-0.5c1.5,0.2,2.6-0.7,4-0.6c2.3,0.2,4.5-1,6.9-0.6
			c2.1-1.3,4.4-0.3,6.7-1c2-0.6,4.4-0.1,6.6-0.6c1.8-0.4,3.6-0.1,5.5-0.6c1.8-0.4,3.8-0.2,5.7-0.6c2-0.4,4.2-0.1,6.3-0.6
			c2.2-0.4,4.6,0.2,6.9-0.7c3.1,0.4,6.1-1,9.1-0.6c0.2,0,0.4,0.1,0.6,0c1.2-0.9,2.5-0.6,3.7-0.5c1.3,0.1,2.5-0.6,3.7-0.6
			c1.7,0,3.4-0.1,5.2-1C167.6,333.4,167.3,331.6,165.7,330.2z M793.3,335c1.2,0.1,2,1.1,3.2,0.9c2.7-0.3,5.3,0.9,8,0.6
			c0.1,0,0.2,0,0.3,0c1.2,0.9,2.7,0.7,4,0.5c1.5-0.2,2.9,0.7,4.3,0.6c3.4-0.2,6.6,1,10,0.6c0.2,0,0.4-0.1,0.6,0
			c1.2,1.1,2.7,0.6,4,0.5c1.4-0.1,2.6,0.9,4,0.7c3.1-0.4,6.1,1,9.1,0.5c0.2,0,0.5-0.1,0.6,0c1.1,1.1,2.5,0.5,3.8,0.5
			c1.4-0.1,2.6,0.9,4,0.6c2.6-0.4,5.1,0.9,7.7,0.6c0.1,0,0.2,0,0.3,0c0.9,0.9,2.1,0.6,3.2,0.5c1.2-0.1,2.2,0.7,3.5,0.7
			c1.5-0.1,3.2-0.5,4.6,0.5c2.7-0.4,5.3,0.6,8,0.6c3-0.1,5.9,1,8.9,0.6c0.1,0,0.2,0,0.3,0c1.7,1.2,3.6,0.3,5.4,0.6
			c0.2-1.9,1.9-3.1,1.8-5.2c-1.1,0.2-2.1-0.3-3.1-0.5c-1.2-0.2-2.5,0-3.7,0c-0.2,0-0.4,0.1-0.6,0c-1.2-0.9-2.7-0.6-4-0.5
			c-1.5,0.2-2.9-0.7-4.3-0.6c-3,0.3-5.9-1-8.9-0.6c-0.1,0-0.2,0-0.3,0c-1.2-0.8-2.5-0.6-3.7-0.5c-1.3,0.1-2.5-0.6-3.7-0.5
			c-3.1,0.2-6.1-1-9.1-0.6c-0.2,0-0.4,0.1-0.6,0c-1.2-0.9-2.5-0.6-3.7-0.5c-1.4,0.1-2.5-0.7-3.7-0.6c-2.7,0.2-5.3-1-8-0.6
			c-0.1,0-0.2,0-0.3,0c-1.1-0.8-2.3-0.7-3.5-0.5c-1.3,0.2-2.3-0.7-3.5-0.6c-3.1,0.3-6.1-1-9.1-0.6c-0.2,0-0.4,0.1-0.6,0
			c-1.2-0.9-2.7-0.6-4-0.5c-1.5,0.2-2.9-0.7-4.3-0.6c-3,0.3-5.9-1-8.9-0.6c-0.2,0-0.4,0.1-0.6,0c-1.5-1.1-3.2-0.3-4.6-0.3
			C794.4,331.6,794.7,333.6,793.3,335z M242.3,321.8c0.4-0.3,0.7-0.6,1-0.6c2.1-0.1,4.2,0,6.3-0.5c1.7-0.4,3.6-0.1,5.5-0.6
			c1.8-0.5,3.8-0.1,5.7-0.6c1.8-0.4,3.8-0.1,5.7-0.6c1.8-0.4,3.9,0.1,5.7-0.7c2.9,0.4,5.6-0.9,8.4-0.6c0.4-0.5,0.9-0.7,0.8-1.5
			c-1.6-0.8-0.9-3.1-2.6-4.2c-1.1,0-2.3,0-3.5,0c-1.3,0-2.6-0.2-3.7,0.6c-3-0.4-5.9,0.9-8.9,0.6c-0.6-0.1-1.3-0.2-1.7,0
			c-1.2,0.8-2.5,0.6-3.8,0.5c-1.3-0.1-2.5,0.5-3.7,0.6c-2,0.2-4.1-0.3-6,0.6c-2.9-0.4-5.7,0.8-8.4,0.6c-0.3,0.4-0.6,0.6-0.7,0.8
			c0.7,1.5,1.7,2.8,1.8,4.4C240.9,321,241.6,321.4,242.3,321.8z M321.9,307.6c-3.7-0.5-7,0.9-10.5,0.5c-0.1,0-0.2,0-0.3,0
			c-1.3,1-2.9,0.6-4.3,0.5c-1.6-0.1-3,0.9-4.6,0.6c-2.7-0.4-5.3,1-8,0.5c-0.1,0-0.2,0-0.3,0c-0.8,0.8-1.9,0.7-2.9,0.5
			c-1.2-0.2-2.1,0.6-3.2,0.6c-2.3-0.1-4.6,0.2-6.9,0.8c1.4,1.6,1.8,3.8,3,5.5c1.1,0,2.3,0.3,3.2-0.1c1.2-0.5,2.3-0.6,3.5-0.5
			c1.3,0.2,2.3-0.7,3.5-0.6c3.1,0.3,6.1-1,9.1-0.6c0.1,0,0.2,0,0.3,0c2.1-1.3,4.4-0.3,6.7-1c2.1-0.6,4.5-0.3,6.8-0.6
			c2.4-0.3,4.7-0.5,7.2-0.9C324.1,310.8,322.3,309.4,321.9,307.6z M681.6,317.7c1,0,2.2-0.3,3.1,0.1c1.3,0.6,2.5,0.6,3.8,0.5
			c1.3-0.1,2.5,0.6,3.7,0.6c3.1-0.2,6.1,1,9.1,0.6c0.2,0,0.4-0.1,0.6,0c1.2,1,2.7,0.6,4,0.5c1.4-0.1,2.6,0.8,4,0.7
			c3-0.3,5.9,0.9,8.9,0.5c0.6-0.1,0.8,1,1.5,0.5c1.6-1.4,2.5-3.2,3.2-5.4c-0.3-0.2-0.6-0.5-0.9-0.8c-2.9-0.1-5.7-1-8.6-0.6
			c-0.1,0-0.2,0-0.3,0c-1.1-1-2.5-0.7-3.7-0.5c-1.5,0.2-2.6-0.8-4-0.6c-3.2,0.4-6.2-0.9-9.4-0.6c-0.1,0-0.2,0-0.3,0
			c-1.2-0.8-2.5-0.6-3.7-0.5c-1.3,0.1-2.5-0.5-3.7-0.6c-2-0.1-4,0-5.9,0c-0.9,1.6-1.5,3.2-2,4.8C681,317.1,681.2,317.3,681.6,317.7z
			 M364.3,303c-3-0.3-5.8,1-8.8,0.5c-0.1,0-0.2,0-0.3,0c-1.1,1-2.5,0.6-3.7,0.5c-1.5-0.1-2.6,0.8-4,0.7c-2.6-0.3-5.1,1-7.7,0.6
			c-0.1,0-0.2,0-0.3,0c-1.1,0.9-2.5,0.6-3.7,0.5c-1.4-0.2-2.5,0.7-3.7,0.6c-2.6-0.3-5.1,1-7.7,0.5c0,0.9,0,1.5,0,2.1
			c0.5,0.6,1.1,1,1.1,1.9c0,0.9,0.9,1.3,1.5,1.8c1.2,0,2.4-0.1,3.5,0c1.2,0.2,2-0.8,3.2-0.6c2.9,0.4,5.7-0.9,8.6-0.6
			c0.1,0,0.2,0,0.3,0c1.1-0.9,2.5-0.6,3.7-0.5c1.3,0.1,2.5-0.5,3.7-0.6c1.7-0.2,3.5,0.3,5.2-0.6c2.8,0.4,5.5-0.9,8.3-0.6
			c1.5,0.2,2.7-0.5,4.1-0.8c0.1-1.4-1.6-0.7-1.7-2C366.2,305.1,364.7,304.3,364.3,303z M594.6,309c1.5-1,2.1,0.4,3.2,0.2
			c3.1-0.4,6.1,0.9,9.1,0.5c0.2,0,0.4-0.1,0.6,0c1.2,0.9,2.5,0.7,3.7,0.5c1.5-0.2,2.6,0.7,4,0.6c2.8-0.2,5.5,1,8.3,0.6
			c0.2,0,0.5-0.1,0.6,0c1.1,1,2.5,0.6,3.8,0.5c1.3-0.1,2.4,0.9,3.8,0.7c1.2-0.2,2.5,0,3.7-0.1c0.2,0,0.3-0.1,0.5-0.2
			c0-0.4,0-0.7,0-1.3c0.6-0.5,1.2-1,1.8-1.4c0-0.6-0.1-1,0-1.3c0.2-0.4,0.7-0.6,0.3-1.4c-1,0-2.2,0.3-3.2-0.1
			c-1.4-0.6-2.7-0.6-4.1-0.4c-1.5,0.2-2.6-0.9-4-0.6c-2.6,0.4-5.1-0.9-7.7-0.6c-0.1,0-0.2,0-0.3,0c-1.1-0.9-2.5-0.7-3.7-0.5
			c-1.5,0.2-2.6-0.7-4-0.6c-3,0.2-5.9-1-8.9-0.6c-0.2,0-0.5,0.1-0.6,0c-1.1-1-2.4-0.4-3.6-0.6C596.7,304.7,595.6,306.3,594.6,309z
			 M766.7,320.7c-1.5-0.9-2.8-1.4-4.3-1.3c-3.5,0.3-6.8-1-10.3-0.6c-0.2,0-0.5,0.1-0.6,0c-1.2-1.1-2.7-0.6-4-0.5
			c-1.4,0.1-2.6-0.8-4-0.7c-2.9,0.3-5.7-1-8.6-0.5c-0.2,0-0.4,0-0.5-0.1c-1.2-1-2.7-0.3-4.1-0.5c-1.3-0.1-2.6-1.1-3.8-0.3
			c-0.7,0.6-1.4,1.2-2.1,1.8c0.5,1.4-1.9,2-0.9,3.5c0.8-0.1,1.5,0.7,2.2,0.6c2.5-0.3,4.9,0.7,7.4,0.6c2.4-0.1,4.7,1,7.1,0.6
			c0.1,0,0.2,0,0.3,0c1,1.1,2.3,0.6,3.5,0.5c1.4-0.1,2.4,0.8,3.7,0.7c1.5-0.1,3.1-0.4,4.6,0.5c3.5-0.4,7,1,10.2,0.6
			c0.9-0.8,1.6-1.4,2.3-2C764.7,322.2,766,321.7,766.7,320.7z M680.8,311.6c-1.6,0.5-2.7-0.9-4.1-0.7c-1.4,0.2-2.9,0.2-4.3-0.5
			c-2.9,0.4-5.7-1-8.6-0.6c-0.3,0-0.7,0.1-0.8,0c-1.1-0.9-2.3-0.6-3.5-0.5c-1.3,0.1-2.3-0.7-3.5-0.7c-1.9,0-3.9,0.4-5.7-0.5
			c-3.3,0.4-6.4-1-9.7-0.5c-0.4,0.4-0.9,0.9-1.4,1.3c0.3,1.6-1.5,2.2-1.6,3.5c0.2,0.2,0.4,0.5,0.6,0.6c1.4,0.3,2.8,0.7,4.2,0.7
			c3-0.1,5.9,1,8.8,0.6c0.2,0,0.5-0.1,0.6,0c1.1,1,2.5,0.6,3.7,0.5c1.5-0.2,2.6,0.8,4,0.6c3-0.3,5.9,1,8.8,0.6c0.2,0,0.5-0.1,0.6,0
			c0.8,1,1.9,0.4,2.9,0.6c0.9,0.2,1.8-0.2,2.7,0.3c0.8,0.4,2,0.2,2.9,0.3C679.2,315.7,679.5,313.5,680.8,311.6z M195.5,320.3
			c1,1.7,2.1,3.4,2.7,5.4c1.9,0,3.8,0.4,5.5-0.1c1.3-0.4,2.5-0.5,3.8-0.4c1.4,0.1,2.5-0.7,3.7-0.6c2.9,0.3,5.7-1,8.6-0.6
			c0.1,0,0.2,0,0.3,0c1.1-0.8,2.3-0.7,3.5-0.5c1.3,0.2,2.3-0.7,3.5-0.6c3.1,0.3,6.1-1,9.1-0.6c0.9,0.1,1.4-0.7,2.2-0.8
			c0-0.6,0-1.2,0-1.7c-1.4-0.8-1-3-2.9-3.7c-2.1,0.2-4.5,0.9-6.9,0.6c-1.1,1-2.5,0.6-3.7,0.5c-1.4-0.2-2.5,0.7-3.8,0.6
			c-3.2-0.3-6.3,1-9.4,0.6c-0.2,0-0.4-0.1-0.6,0c-1.4,0.9-2.9,0.6-4.3,0.5c-1.6-0.1-3,0.9-4.6,0.6
			C199.9,319.2,197.7,319.6,195.5,320.3z M451,63.8c-1.1-0.8-2.2-0.9-3.5-0.9c-2.6,0-5.1,0-7.7,0c-3.5,0-6.9,0-10.5,0
			c0,1.2,0.3,2.4-0.1,3.2c-0.9,2.3-0.3,4.6-0.5,6.7c1.1,1,2.3,0.9,3.5,0.9c4.9,0,9.8,0,14.8,0c0.9,0,1.8,0,2.8,0
			c-0.1-1.7,0-3.1,1.1-4.3c-0.6-0.3-0.8-1-0.5-1.4C451.4,66.6,450.8,65.1,451,63.8z M550.7,356.4c0.9,0.8,1.5,0.5,2,0.6
			c0.6,0.1,1,0.6,1.8,0.6c7.8,0.1,15.6-0.4,23.4,0.5c3.4,0.4,6.8,0,10.2,0.1c3.4,0.1,6.8-0.2,10.3,0.5c2.5,0.5,5.1,0.1,7.7,0.1
			c0.7,0,0.9-0.6,1.3-0.9c-0.5-0.5-0.9-0.9-1.5-1.5c-1.6,0.5-3.1-0.6-4.8-0.6c-13.7,0.4-27.3-0.8-41-0.6c-2.1,0-4.3-0.6-6.4-0.4
			C552.7,355.3,551.8,355.8,550.7,356.4z M408.6,354.7c-1.1,0-2.3,0.1-3.4,0c-1.1-0.1-2,0.7-3.2,0.6c-3.7-0.1-7.4-0.1-11.1,0
			c-3.6,0.1-7.3-0.4-10.8,0.6c-8.1,0.2-16.3-0.6-24.4,0.6c-0.8,0.5-1.1,1.2-0.6,2.2c3.5-0.2,7.2,0.5,10.7-0.6
			c8-0.2,15.9,0.2,23.9-0.5c5.4-0.5,10.8-0.1,16.2-0.1c1.7,0,3.2-0.3,4.7-0.8C410.7,355.2,409.1,355.5,408.6,354.7z M521.8,73.7
			c2.8,0,5.4,0,8.1,0c1.3,0,2.6,0.1,3.6-0.9c0-1,0-1.9,0-3.1c-0.3-0.2-0.8-0.6-1.3-0.9c0-1.5,0-2.9,0-4.1c-3.8,0-7.5,0-11,0
			c-0.3,0.3-0.5,0.5-0.7,0.7c0,2.3,0,4.7,0,6.9C520.9,72.8,521.3,73.2,521.8,73.7z"/>
		<path d="M413,558.4c0.9,0,1.8,0,3.3,0C414.8,559.1,413.9,558.8,413,558.4z"/>
		<path d="M430.4,558.8c-0.9,0-1.8,0-3.3,0C428.6,558.1,429.5,558.5,430.4,558.8z"/>
		<path d="M461.3,558.6c-0.6,0.4-1.2,0.4-1.8,0C460.1,558.2,460.7,558.2,461.3,558.6z"/>
		<path d="M467.5,558.6c-0.6,0.4-1.2,0.4-1.8,0C466.4,558.2,466.9,558.2,467.5,558.6z"/>
		<path d="M440.2,558.6c-0.4,0.4-0.8,0.4-1.1,0.1C439.3,558.1,439.7,558.2,440.2,558.6z"/>
		<path d="M549.4,558.6c0.2-0.3,0.4-0.3,0.6,0C549.8,558.9,549.6,558.9,549.4,558.6z"/>
		<path d="M456.4,43c-1.1,1.5-2.8,1.5-4.2,2.2c-1.4,0.8-3.1,1.3-4.6,1.9c-0.5,0.2-1.8,0-1.7,1.3c-2.8,1.8-5.7,3.6-8.5,5.5
			c-1,0.7-2.1,0.5-3.2,0.5c-0.3-0.3-0.6-0.6-0.7-0.7c1-1.8,2-3.6,3-5.4c0.2-0.1,0.6-0.2,0.9-0.3c0-0.4,0-0.8,0-1.1
			c1.8-2.4,4.6-3.3,7.1-4.2c2.5-0.9,5-2.2,7.7-2.7c1-0.2,2-0.4,2.8-0.9c0.8-0.6,1.8-0.3,2.6-0.6c1.7-0.6,3.5-1.2,5.3-1.6
			c1.7-0.4,3.5-0.8,5.2-1.3c2-0.6,4.3-0.4,6.2-1.6c0.4-0.3,1.1,0,1.7,0c2.7,0,5.3,0,8,0c1.7,0,3.4,0.1,5.2,0.5c5,1.1,10,2.6,15,3.6
			c1,0.2,2,0.5,2.9,1.1c0.2,0.1,0.5,0.6,0.6,0.5c2.5-0.5,4.5,1.1,6.6,1.8c3.2,1.2,6.4,2.3,9.4,4c0.2,0.1,0.3,0.3,0.5,0.5
			c0.4,1.9,1.7,3.4,3,4.8c-0.1,1.1,0.6,1.9,1,2.8c-0.6,1.3-1.8,0.7-2.8,0.8c-1.2-0.8-2.3-1.7-3.6-2.3c-2-0.9-3.8-2.3-5.5-3.8
			c-0.7-0.6-1.5-0.9-2.3-1.3c-2.9-1.2-5.9-2.4-8.9-4c-2.7,0.3-5.4-0.8-8.2-1.5c-2.4-0.6-4.8-1-7.2-1.9c-0.3-0.1-0.8-0.1-1.1,0
			c-2.2,1.1-4.6,0.4-6.9,0.5c-2.4,0.1-4.8,0.2-7.1-0.1c-1.2-0.2-2.3-0.4-3.5,0c-1.1,0.4-2.4,0.6-3.6,0.9
			C463.8,41.8,460.3,43.4,456.4,43z M477.8,39.8c0.3-0.3,0.4-0.4,0.6-0.5c1.5-0.3,3.1-0.5,4.6,0.1c0.6,0.3,1.2,0.4,1.7-0.2
			c0.4-0.5,1.1,0.2,1.5-0.4c0-1.2,0-2.4,0-3.6c-0.3-0.3-0.5-0.5-0.7-0.7c-3,0-6.1,0-9.2,0c-0.3,0.3-0.6,0.5-0.7,0.7
			c0,1.3,0,2.5,0,3.7C476.4,39,477.1,39.1,477.8,39.8z M505,39.7c-4.7-1.4-9.2-3.1-14-3.6c-0.1,0.4-0.2,0.6-0.2,0.8
			c0,0.7,0,1.3,0,2.1c4.3,1.1,8.5,2.5,12.7,3C504.4,41.3,504.5,40.4,505,39.7z M470.9,36.3c-0.8-0.1-1.5-0.2-2.1,0
			c-3.4,1.1-6.8,1.9-10.2,2.7c-1.2,0.3-1.4,1-1.3,2.1c1.2,0.5,2.3,1.5,3.7,0.3c1.2,0.4,2.1-0.4,3.1-0.6c2.3-0.5,4.7-0.9,6.8-1.8
			C470.9,38,470.9,37.2,470.9,36.3z M508.5,43.3c0.7,0.6,1.7,1,2.5,1.3c0.9,0.3,1.8,0.6,2.6,1.1c1.5,1,3,1,4.4,0
			c0.4-0.2,0.8-0.4,1.2-0.6c-0.4-0.3-0.7-0.7-1.1-0.8c-1.8-0.6-3.7-1.2-5.3-2.1c-1.2-0.7-2.5-1-3.8-0.6c-0.1,0.3-0.1,0.6-0.2,0.8
			C508.6,42.6,508.3,42.8,508.5,43.3z M442.9,45c2,1.4,3,1.8,3.9,1.3c2.2-1,4.3-2,6.4-3c0.2-0.1,0.4-0.3,0.6-0.5
			c-0.5-0.5-1-1-1.5-1.5c-0.6,0-1.1,0-1.6,0C448.4,42.9,445.4,43.2,442.9,45z M436.8,51.4c0.7,0.1,1.4,0.2,2.1,0
			c0.4-0.9,1.4-1.2,2.1-1.5c1-0.3,1.3-1.1,2-1.5c-2-1.3-2-1.3-3.9-1.2C438.8,48.8,437.5,49.9,436.8,51.4z M522.3,47
			c-0.5,0-1.1,0-1.8,0c-0.2,0.8-1.4,0.9-1.3,2.1c2,0.2,3,3.1,5.9,2.2C524.2,49.9,523.3,48.6,522.3,47z"/>
		<path d="M507.6,49.8c-2.7,0.3-4.5-1.3-6.4-2.3c0.9-0.9,1.7-1.7,2.8-2.8c2.8-0.3,5,2.2,8.4,2.5C510.8,48.9,508.8,48.6,507.6,49.8z
			 M505.3,45.9c-0.5,0.7-1.6,0.5-2,1.5c1.1,0.5,2.1,1,3.2,1.5c0.6-0.6,1.6-0.4,1.9-1.2C507.8,46.2,506.1,46.9,505.3,45.9z"/>
		<path d="M458.1,44.7c0.8,0.8,1.5,1.7,2.6,2c0,0.4,0,0.7,0,1.2c-1.3,0.6-2.7,1.1-4,1.8c-0.6,0.3-1.2,0.3-1.6,0.1
			c-1.6-0.5-3.2-1.1-5.2-2.3C453,46.7,455.1,44.6,458.1,44.7z M458.5,46.4c-0.9,0.2-1.6,0.2-2.1-0.5c-0.8,1-2.5,0.4-3.2,1.9
			c0.8,0.2,1.3,1,2.5,0.9C456.2,47.8,458.1,48.7,458.5,46.4z"/>
	</g>
</g>
</svg>
