<?xml version="1.0" encoding="utf-8"?>
<!-- Generator: Adobe Illustrator 19.0.0, SVG Export Plug-In . SVG Version: 6.00 Build 0)  -->
<svg version="1.1" id="Layer_1" xmlns="http://www.w3.org/2000/svg" xmlns:xlink="http://www.w3.org/1999/xlink" x="0px" y="0px"
	 viewBox="0 0 960 560" style="enable-background:new 0 0 960 560;" xml:space="preserve">
<g>
	<g>
		<path d="M205.5,119.6c12.4-34.4,37.1-58.9,69.3-72.7c32.9-14.1,73.9,9.7,83.9,44.4c7,24.2,14.6,48.4,19.2,73
			c4.2,22.2-3.7,41.9-20.6,57.4c-2,1.8-3.5,4.2-5.7,5.6c-13.7,8.8-13.4,19.5-7.8,33.8c32.1,81.9,89.6,135.9,173.8,161.4
			c1.1,0.3,3-0.2,3.9-1.1c16.4-15.6,30.1-37.5,55.1-37.5c21.1,0,42.4,5.6,63.2,10.4c21.7,5,43.9,9.4,60.1,27.6
			c24.6,27.6,24.4,64.9-1.9,90.7c-13.3,13-26,28-41.8,37.1c-21.5,12.4-46.3,5.4-69.5,2.6c-190.9-23-340.1-163.4-374.2-352.1
			c-3.7-20.4-4.6-41.2-6.9-61.8C205.5,132.1,205.5,125.8,205.5,119.6z"/>
		<path d="M491,5.5c30.1,6.4,61.6,9.1,90.1,19.8c104.3,38.9,173.6,141.2,174.2,252.5c0,0.9-1.7,2.5-2.6,2.5
			c-9.9,0.2-19.7,0.2-29.6,0c-0.7,0-1.9-1.2-2-1.9C717.3,144.1,616.8,43.7,482.5,39.7c-0.7,0-1.9-1.3-1.9-2
			c-0.1-10.8-0.1-21.5-0.1-32.3C484,5.5,487.5,5.5,491,5.5z"/>
		<path d="M632.8,280.4c-13.1,4.8-14.9-3.3-16.2-16.5c-6.9-67.3-65.5-119.9-133.3-121c-1,0-2.7-1.8-2.7-2.7
			c-0.2-8.9-0.4-17.7,0.1-26.6c0.1-1.7,3.1-4.7,4.7-4.6c91.1,2.3,164.5,75.8,166.7,166.9c0,1.5-2.6,4.1-4.3,4.4
			C643.7,280.9,639.4,280.4,632.8,280.4z"/>
		<path d="M529.6,280.4c-8.3,2.1-14.9,0.6-17.9-12.7c-3-13.5-15.1-20.2-29.2-21.7c-0.8-0.1-2-1.4-2-2.1c-0.1-9.6-0.2-19.2,0.1-28.8
			c0-1.1,2.2-3.1,3.4-3.1c35.1,1.6,63.5,30,65,65.1c0,1.1-2,3.1-3.2,3.2C541.2,280.7,536.6,280.4,529.6,280.4z"/>
	</g>
</g>
</svg>
